<svg width="17" height="20" viewBox="0 0 17 20" fill="none" xmlns="http://www.w3.org/2000/svg">
<path d="M1 3.19043V16.8095C1 17.914 1.89543 18.8095 3 18.8095H13.2308C14.3353 18.8095 15.2308 17.914 15.2308 16.8095V3.19043C15.2308 2.08586 14.3353 1.19043 13.2308 1.19043H3C1.89543 1.19043 1 2.08586 1 3.19043Z" stroke="white" stroke-width="1.6"/>
<path d="M12.6978 3.22314H3.53296C3.25682 3.22314 3.03296 3.447 3.03296 3.72314V5.43377C3.03296 5.70991 3.25682 5.93377 3.53296 5.93377H12.6978C12.9739 5.93377 13.1978 5.70991 13.1978 5.43377V3.72314C13.1978 3.447 12.9739 3.22314 12.6978 3.22314Z" stroke="white"/>
<path d="M3.03296 8.46729V9.50025C3.03296 9.77639 3.25682 10.0003 3.53296 10.0003H4.56593C4.84207 10.0003 5.06593 9.77639 5.06593 9.50025V8.46729C5.06593 8.19114 4.84207 7.96729 4.56593 7.96729H3.53296C3.25682 7.96729 3.03296 8.19114 3.03296 8.46729Z" fill="white"/>
<path d="M3.03296 11.8555V12.8884C3.03296 13.1646 3.25682 13.3884 3.53296 13.3884H4.56593C4.84207 13.3884 5.06593 13.1646 5.06593 12.8884V11.8555C5.06593 11.5793 4.84207 11.3555 4.56593 11.3555H3.53296C3.25682 11.3555 3.03296 11.5793 3.03296 11.8555Z" fill="white"/>
<path d="M3.03296 15.2437V16.2766C3.03296 16.5528 3.25682 16.7766 3.53296 16.7766H4.56593C4.84207 16.7766 5.06593 16.5528 5.06593 16.2766V15.2437C5.06593 14.9675 4.84207 14.7437 4.56593 14.7437H3.53296C3.25682 14.7437 3.03296 14.9675 3.03296 15.2437Z" fill="white"/>
<path d="M5.74359 8.46729V9.50025C5.74359 9.77639 5.96745 10.0003 6.24359 10.0003H7.27656C7.5527 10.0003 7.77656 9.77639 7.77656 9.50025V8.46729C7.77656 8.19114 7.5527 7.96729 7.27656 7.96729H6.24359C5.96745 7.96729 5.74359 8.19114 5.74359 8.46729Z" fill="white"/>
<path d="M5.74359 11.8555V12.8884C5.74359 13.1646 5.96745 13.3884 6.24359 13.3884H7.27656C7.5527 13.3884 7.77656 13.1646 7.77656 12.8884V11.8555C7.77656 11.5793 7.5527 11.3555 7.27656 11.3555H6.24359C5.96745 11.3555 5.74359 11.5793 5.74359 11.8555Z" fill="white"/>
<path d="M5.74359 15.2437V16.2766C5.74359 16.5528 5.96745 16.7766 6.24359 16.7766H7.27656C7.5527 16.7766 7.77656 16.5528 7.77656 16.2766V15.2437C7.77656 14.9675 7.5527 14.7437 7.27656 14.7437H6.24359C5.96745 14.7437 5.74359 14.9675 5.74359 15.2437Z" fill="white"/>
<path d="M8.45419 8.46729V9.50025C8.45419 9.77639 8.67805 10.0003 8.95419 10.0003H9.98716C10.2633 10.0003 10.4872 9.77639 10.4872 9.50025V8.46729C10.4872 8.19114 10.2633 7.96729 9.98716 7.96729H8.95419C8.67805 7.96729 8.45419 8.19114 8.45419 8.46729Z" fill="white"/>
<path d="M11.1648 8.46729V9.50025C11.1648 9.77639 11.3887 10.0003 11.6648 10.0003H12.6978C12.9739 10.0003 13.1978 9.77639 13.1978 9.50025V8.46729C13.1978 8.19114 12.9739 7.96729 12.6978 7.96729H11.6648C11.3887 7.96729 11.1648 8.19114 11.1648 8.46729Z" fill="white"/>
<path d="M11.1648 11.8555V16.2767C11.1648 16.5529 11.3887 16.7767 11.6648 16.7767H12.6978C12.9739 16.7767 13.1978 16.5529 13.1978 16.2767V11.8555C13.1978 11.5793 12.9739 11.3555 12.6978 11.3555H11.6648C11.3887 11.3555 11.1648 11.5793 11.1648 11.8555Z" fill="white"/>
<path d="M8.45419 11.8555V12.8884C8.45419 13.1646 8.67805 13.3884 8.95419 13.3884H9.98716C10.2633 13.3884 10.4872 13.1646 10.4872 12.8884V11.8555C10.4872 11.5793 10.2633 11.3555 9.98716 11.3555H8.95419C8.67805 11.3555 8.45419 11.5793 8.45419 11.8555Z" fill="white"/>
<path d="M8.45419 15.2437V16.2766C8.45419 16.5528 8.67805 16.7766 8.95419 16.7766H9.98716C10.2633 16.7766 10.4872 16.5528 10.4872 16.2766V15.2437C10.4872 14.9675 10.2633 14.7437 9.98716 14.7437H8.95419C8.67805 14.7437 8.45419 14.9675 8.45419 15.2437Z" fill="white"/>
</svg>
