<svg width="32" height="52" viewBox="0 0 32 52" fill="none" xmlns="http://www.w3.org/2000/svg">
<path d="M15.1176 46.848C15.5177 47.284 16.1663 47.284 16.5663 46.848C16.9664 46.4121 16.9664 45.7053 16.5663 45.2693C16.1663 44.8334 15.5177 44.8334 15.1176 45.2693C14.7176 45.7053 14.7176 46.4121 15.1176 46.848Z" fill="white"/>
<path d="M1 40.4616V49.0001C1 50.1046 1.89543 51.0001 3 51.0001H29C30.1046 51.0001 31 50.1046 31 49.0001V40.4616M1 40.4616H31M1 40.4616V8.53852M31 40.4616V8.53852M31 8.53852V3.00005C31 1.89548 30.1046 1.00005 29 1.00005H3C1.89543 1.00005 1 1.89548 1 3.00005V8.53852M31 8.53852H1M11.5882 4.76929H20.4118M7.75434 31.7236V33.9229C7.75434 33.9655 7.719 34 7.67541 34H5.07892C5.03533 34 5 33.9655 5 33.9229V26.1096C5 26.067 5.03534 26.0325 5.07892 26.0325H7.67541C7.719 26.0325 7.75434 26.067 7.75434 26.1096L7.75434 28.4191M7.75434 31.7236L7.75434 28.4191M7.75434 31.7236L11.869 30.334C11.8801 30.3303 11.8902 30.3242 11.8985 30.3161L16.3616 26.0325M7.75434 28.4191L10.4921 27.3972C10.503 27.3931 10.5129 27.3867 10.521 27.3785L12.9531 24.8943M12.9531 24.8943L16.3616 26.0325M12.9531 24.8943L6.87202 22.8636C6.46387 22.7273 6.24326 22.296 6.37665 21.8951L7.27233 19.2032M16.3616 26.0325L22.4206 28.0558C22.8374 28.195 23.2901 27.9738 23.4263 27.5644L23.7467 26.6016M24.8829 23.1869L25.2105 22.2024C25.3439 21.8015 25.1232 21.3702 24.7151 21.2339L9.16648 16.0417C8.74969 15.9025 8.29699 16.1237 8.16077 16.533L7.27233 19.2032M24.8829 23.1869L23.7467 26.6016M24.8829 23.1869L26.7405 23.8488C26.9401 23.92 27.0463 24.1329 26.9806 24.3304L26.0886 27.0111C26.0195 27.2187 25.7881 27.3289 25.5782 27.2542L23.7467 26.6016M24.8829 23.1869L16.8601 23.7412C16.7197 23.7509 16.5792 23.7238 16.4532 23.6626L7.27233 19.2032M16.5663 46.848C16.1663 47.284 15.5177 47.284 15.1176 46.848C14.7176 46.4121 14.7176 45.7053 15.1176 45.2693C15.5177 44.8334 16.1663 44.8334 16.5663 45.2693C16.9664 45.7053 16.9664 46.4121 16.5663 46.848ZM17.228 21.1951C17.228 21.3522 17.0976 21.4796 16.9368 21.4796C16.776 21.4796 16.6457 21.3522 16.6457 21.1951C16.6457 21.0379 16.776 20.9105 16.9368 20.9105C17.0976 20.9105 17.228 21.0379 17.228 21.1951Z" stroke="#D0264F" stroke-width="1.5" stroke-linecap="round"/>
</svg>
