<svg width="43" height="52" viewBox="0 0 43 52" fill="none" xmlns="http://www.w3.org/2000/svg">
<path d="M26.7451 23.7163L14.3985 29.8896C14.3846 29.8965 14.3693 29.9002 14.3538 29.9002H11.8271C11.7719 29.9002 11.7271 29.9449 11.7271 30.0002V35.1006C11.7271 35.1558 11.7719 35.2006 11.8271 35.2006H13.3939C13.4492 35.2006 13.4939 35.2454 13.4939 35.3006V38.4075M26.7451 23.7163L33.6161 27.4436M26.7451 23.7163V13.2153C26.7451 13.1601 26.7003 13.1153 26.6451 13.1153H16.1442M13.4939 38.4075V50.8758C13.4939 50.931 13.5387 50.9758 13.5939 50.9758H19M13.4939 38.4075H28.6082C28.6635 38.4075 28.7082 38.4523 28.7082 38.5075V40.3438M28.7082 50.9758H39.8963C39.9515 50.9758 39.9963 50.931 39.9963 50.8758V40.3438M28.7082 50.9758V40.3438M28.7082 50.9758H23.4171M28.7082 40.3438H39.9963M39.9963 40.3438V35.3006C39.9963 35.2454 40.041 35.2006 40.0963 35.2006H41.6631C41.7183 35.2006 41.7631 35.1558 41.7631 35.1006V30.0002C41.7631 29.9449 41.7183 29.9002 41.6631 29.9002H39.1328C39.1196 29.9002 39.1066 29.8976 39.0944 29.8925L35.0884 28.2255M23.4171 50.9758V44.0085C23.4171 43.9533 23.3723 43.9085 23.3171 43.9085H19.1C19.0448 43.9085 19 43.9533 19 44.0085V50.9758M23.4171 50.9758H19M33.6161 27.4436L35.0884 28.2255M33.6161 27.4436V22.8329M35.0884 28.2255V22.8329M33.6161 22.8329L32.1456 22.8329C32.0903 22.8329 32.0456 22.7881 32.0456 22.7329V20.2826C32.0456 20.2274 32.0903 20.1826 32.1456 20.1826H36.3626C36.4179 20.1826 36.4626 20.2274 36.4626 20.2826V22.7329C36.4626 22.7881 36.4179 22.8329 36.3626 22.8329L35.0884 22.8329M33.6161 22.8329H35.0884M1 17.7788V23.2115C1 24.3267 1.90404 25.2307 3.01922 25.2307H14.125C15.2401 25.2307 16.1442 24.3267 16.1442 23.2115V17.7788M1 17.7788H16.1442M1 17.7788V7.4519M16.1442 17.7788V13.1153M16.1442 7.4519V3.01922C16.1442 1.90404 15.2401 1 14.125 1H3.01922C1.90404 1 1 1.90404 1 3.01923V7.4519M16.1442 7.4519H1M16.1442 7.4519V13.1153M6.34025 4H11M8.93007 21.8076C8.74144 22.0038 8.43561 22.0038 8.24698 21.8076C8.05834 21.6114 8.05834 21.2934 8.24697 21.0972C8.43561 20.901 8.74144 20.901 8.93007 21.0972C9.1187 21.2934 9.1187 21.6114 8.93007 21.8076ZM37.0516 47.847V43.3481C37.0516 43.2929 37.0068 43.2481 36.9516 43.2481H32.2437C32.1885 43.2481 32.1437 43.2929 32.1437 43.3481V47.847C32.1437 47.9022 32.1885 47.947 32.2437 47.947H36.9516C37.0068 47.947 37.0516 47.9022 37.0516 47.847Z" stroke="#D0264F" stroke-width="1.5" stroke-linecap="round"/>
</svg>
