<svg width="50" height="50" viewBox="0 0 50 50" fill="none" xmlns="http://www.w3.org/2000/svg">
<path d="M1.83109 11.9581C1.89791 11.5493 1.62069 11.1638 1.21191 11.0969C0.803118 11.0301 0.417559 11.3073 0.350736 11.7161L1.83109 11.9581ZM11.9122 23.2776C12.321 23.2108 12.5982 22.8253 12.5314 22.4165C12.4646 22.0077 12.0791 21.7305 11.6703 21.7973L11.9122 23.2776ZM33.5336 38.6092L34.0639 38.0789L33.5336 38.6092ZM43.6221 48.6977L43.0918 49.228L43.6221 48.6977ZM48.6977 43.6221L48.1674 44.1524L48.6977 43.6221ZM38.6092 33.5336L38.0789 34.0639L38.6092 33.5336ZM38.6092 32.074L39.1396 32.6043L38.6092 32.074ZM43.7127 26.9705L43.1823 26.4402L43.7127 26.9705ZM43.3813 25.2885L43.6708 24.5967L43.3813 25.2885ZM14.5929 13.2424L14.8824 12.5505L14.5929 13.2424ZM13.2424 14.5929L13.9342 14.3034L13.2424 14.5929ZM25.2885 43.3813L25.9804 43.0918L25.2885 43.3813ZM26.9705 43.7127L27.5008 44.243L26.9705 43.7127ZM32.074 38.6092L32.6043 39.1396L32.074 38.6092ZM45.0817 48.6977L45.6121 49.228L45.0817 48.6977ZM46.8897 46.8897L46.3594 46.3594L46.8897 46.8897ZM48.6977 45.0817L48.1674 44.5514L48.6977 45.0817ZM18.4557 17.0095C18.075 16.8463 17.6341 17.0227 17.4709 17.4034C17.3077 17.7841 17.4841 18.225 17.8648 18.3882L18.4557 17.0095ZM21.0948 19.7725C21.4755 19.9356 21.9164 19.7593 22.0796 19.3785C22.2427 18.9978 22.0664 18.5569 21.6856 18.3937L21.0948 19.7725ZM24.9097 19.7755C24.5276 19.6156 24.0882 19.7957 23.9283 20.1778C23.7684 20.5599 23.9485 20.9993 24.3306 21.1592L24.9097 19.7755ZM37.2684 26.5743C37.6505 26.7343 38.0899 26.5542 38.2498 26.1721C38.4097 25.79 38.2296 25.3506 37.8475 25.1906L37.2684 26.5743ZM1.01933 12.275L0.279159 12.154L1.01933 12.275ZM0.350736 11.7161L0.279159 12.154L1.75951 12.396L1.83109 11.9581L0.350736 11.7161ZM11.4742 23.3492L11.9122 23.2776L11.6703 21.7973L11.2322 21.8689L11.4742 23.3492ZM18.436 11.7913V15.1643H19.936V11.7913H18.436ZM15.1451 18.3901H11.8373V19.8901H15.1451V18.3901ZM33.0033 39.1396L43.0918 49.228L44.1524 48.1674L34.0639 38.0789L33.0033 39.1396ZM49.228 43.0917L39.1396 33.0033L38.0789 34.0639L48.1674 44.1524L49.228 43.0917ZM39.1396 32.6043L44.243 27.5008L43.1823 26.4402L38.0789 31.5436L39.1396 32.6043ZM43.6708 24.5967L14.8824 12.5505L14.3034 13.9342L43.0918 25.9804L43.6708 24.5967ZM12.5505 14.8824L24.5967 43.6708L25.9804 43.0918L13.9342 14.3034L12.5505 14.8824ZM27.5008 44.243L32.6043 39.1396L31.5436 38.0789L26.4402 43.1824L27.5008 44.243ZM45.6121 49.228L47.42 47.42L46.3594 46.3594L44.5514 48.1674L45.6121 49.228ZM47.42 47.42L49.228 45.6121L48.1674 44.5514L46.3594 46.3594L47.42 47.42ZM17.8648 18.3882L21.0948 19.7725L21.6856 18.3937L18.4557 17.0095L17.8648 18.3882ZM24.3306 21.1592L37.2684 26.5743L37.8475 25.1906L24.9097 19.7755L24.3306 21.1592ZM24.5967 43.6708C25.0859 44.8399 26.6047 45.1392 27.5008 44.243L26.4402 43.1824C26.2983 43.3242 26.0579 43.2768 25.9804 43.0918L24.5967 43.6708ZM14.8824 12.5505C13.412 11.9352 11.9352 13.412 12.5505 14.8824L13.9342 14.3034C13.8368 14.0706 14.0706 13.8368 14.3034 13.9342L14.8824 12.5505ZM44.243 27.5008C45.1392 26.6047 44.8399 25.0859 43.6708 24.5967L43.0918 25.9804C43.2768 26.0579 43.3242 26.2983 43.1823 26.4402L44.243 27.5008ZM39.1396 33.0033C39.0294 32.8931 39.0294 32.7145 39.1396 32.6043L38.0789 31.5436C37.3829 32.2396 37.3829 33.368 38.0789 34.0639L39.1396 33.0033ZM48.1674 44.1524C48.2775 44.2626 48.2775 44.4412 48.1674 44.5514L49.228 45.6121C49.924 44.9161 49.924 43.7877 49.228 43.0917L48.1674 44.1524ZM43.0918 49.228C43.7877 49.924 44.9161 49.924 45.6121 49.228L44.5514 48.1674C44.4412 48.2775 44.2626 48.2775 44.1524 48.1674L43.0918 49.228ZM34.0639 38.0789C33.368 37.3829 32.2396 37.3829 31.5436 38.0789L32.6043 39.1396C32.7145 39.0294 32.8931 39.0294 33.0033 39.1396L34.0639 38.0789ZM12.0462 1.73948C17.8168 0.83128 22.7972 5.8117 21.889 11.5823L23.3708 11.8155C24.4372 5.03946 18.589 -0.808721 11.813 0.257723L12.0462 1.73948ZM0.279159 12.154C-0.795974 18.7311 4.8971 24.4242 11.4742 23.3492L11.2322 21.8689C5.667 22.7785 0.849783 17.9612 1.75951 12.396L0.279159 12.154ZM3.73848 11.7913C3.73848 16.2641 7.36442 19.8901 11.8373 19.8901V18.3901C8.19285 18.3901 5.23848 15.4357 5.23848 11.7913H3.73848ZM11.8373 5.19252C15.4817 5.19252 18.436 8.1469 18.436 11.7913H19.936C19.936 7.31848 16.3101 3.69252 11.8373 3.69252V5.19252ZM11.8373 3.69252C7.36442 3.69252 3.73848 7.31848 3.73848 11.7913H5.23848C5.23848 8.1469 8.19285 5.19252 11.8373 5.19252V3.69252Z" fill="#D0264F"/>
</svg>
