<svg width="52" height="50" viewBox="0 0 52 50" fill="none" xmlns="http://www.w3.org/2000/svg">
<path d="M9 17H6C3.23858 17 1 14.7614 1 12V6C1 3.23858 3.23858 1 6 1H46C48.7614 1 51 3.23858 51 6V12C51 14.7614 48.7614 17 46 17H42M9 17V28C9 30.7614 11.2386 33 14 33H17M9 17H25.5H42M42 17V28V28C42 30.7614 39.7614 33 37 33H34M17 33V44C17 46.7614 19.2386 49 22 49H29C31.7614 49 34 46.7614 34 44V41V33M17 33H25.5H34M42.3679 28.3293L43.6468 28.7904C44.0113 28.9218 44.419 28.8308 44.6931 28.5568L45.5583 27.6915C45.7398 27.5101 46.0339 27.5101 46.2154 27.6915L48.8438 30.32C49.0253 30.5014 49.0253 30.7956 48.8438 30.9771L48.0021 31.8188C47.7161 32.1048 47.6305 32.5349 47.7853 32.9086L48.4211 34.4434C48.5759 34.817 48.9405 35.0607 49.3449 35.0607H50.5354C50.792 35.0607 51 35.2687 51 35.5253V39.2425C51 39.4991 50.792 39.7071 50.5354 39.7071H49.3117C48.9242 39.7071 48.5715 39.931 48.4067 40.2817L47.8284 41.5121C47.6491 41.8936 47.7283 42.3466 48.0263 42.6446L48.8438 43.4621C49.0253 43.6436 49.0253 43.9378 48.8438 44.1192L46.2154 46.7476C46.034 46.9291 45.7398 46.9291 45.5583 46.7476L44.7495 45.9388C44.4472 45.6365 43.9862 45.5598 43.6023 45.748L42.267 46.4024C41.9243 46.5703 41.7071 46.9187 41.7071 47.3003V48.5354C41.7071 48.792 41.4991 49 41.2425 49L37.5253 49C37.2687 49 37.0607 48.792 37.0607 48.5354V47.4174C37.0607 46.9774 36.7731 46.5891 36.3522 46.4609L34.2207 45.748M32 28V28C33.6569 28 35 26.6569 35 25V25C35 23.3431 33.6569 22 32 22V22C30.3431 22 29 23.3431 29 25V25C29 26.6569 30.3431 28 32 28V28ZM19 28V28C20.6569 28 22 26.6569 22 25V25C22 23.3431 20.6569 22 19 22V22C17.3431 22 16 23.3431 16 25V25C16 26.6569 17.3431 28 19 28V28ZM12.5 12V12C14.1569 12 15.5 10.6569 15.5 9V9C15.5 7.34315 14.1569 6 12.5 6V6C10.8431 6 9.5 7.34315 9.5 9V9C9.5 10.6569 10.8431 12 12.5 12V12ZM25.5 12V12C27.1569 12 28.5 10.6569 28.5 9V9C28.5 7.34315 27.1569 6 25.5 6V6C23.8431 6 22.5 7.34315 22.5 9V9C22.5 10.6569 23.8431 12 25.5 12V12ZM39.5 12V12C41.1569 12 42.5 10.6569 42.5 9V9C42.5 7.34315 41.1569 6 39.5 6V6C37.8431 6 36.5 7.34315 36.5 9V9C36.5 10.6569 37.8431 12 39.5 12V12ZM36.5 37.5V37.5C36.5 39.1569 37.8431 40.5 39.5 40.5V40.5C41.1569 40.5 42.5 39.1569 42.5 37.5V37.5C42.5 35.8431 41.1569 34.5 39.5 34.5V34.5C37.8431 34.5 36.5 35.8431 36.5 37.5ZM25.5 44V44C27.1569 44 28.5 42.6569 28.5 41V41C28.5 39.3431 27.1569 38 25.5 38V38C23.8431 38 22.5 39.3431 22.5 41V41C22.5 42.6569 23.8431 44 25.5 44Z" stroke="#D0264F" stroke-width="1.5"/>
</svg>
