<svg width="42" height="52" viewBox="0 0 42 52" fill="none" xmlns="http://www.w3.org/2000/svg">
<path d="M27.6176 21.5882V21.5882C29.2884 21.5882 30.6429 22.9427 30.6429 24.6134V27.0924C30.6429 32.418 26.3256 36.7353 21 36.7353V36.7353C15.6744 36.7353 11.3571 32.418 11.3571 27.0924V24.2782C11.3571 22.7926 12.5615 21.5882 14.0471 21.5882V21.5882M27.6176 21.5882V19.3824C27.6176 15.7275 24.6548 12.7647 21 12.7647V12.7647V12.7647C17.16 12.7647 14.0471 15.8776 14.0471 19.7176V21.5882M27.6176 21.5882H14.0471M21 30.8529V27.4706M21 26V27.4706M21 27.4706H22.6071M21 27.4706H19.3929M21.5658 50.6117L24.3258 48.7176C30.5423 44.4514 35.3656 38.4498 38.1943 31.461V31.461C40.0474 26.8829 41 21.9904 41 17.0515V10.4753C41 10.0792 40.7661 9.72034 40.4036 9.56043L21.8073 1.35615C21.293 1.12927 20.707 1.12927 20.1927 1.35615L1.59636 9.56043C1.23389 9.72034 1 10.0792 1 10.4753V17.0515C1 21.9904 1.95262 26.8829 3.80566 31.4611V31.4611C6.63445 38.4498 11.4577 44.4514 17.6742 48.7176L20.4342 50.6117C20.7751 50.8457 21.2249 50.8457 21.5658 50.6117Z" stroke="#D0264F" stroke-width="1.5" stroke-linecap="round"/>
</svg>
