<svg width="52" height="52" viewBox="0 0 52 52" fill="none" xmlns="http://www.w3.org/2000/svg">
<path d="M36 26.0086H17M26.499 35.5989L26.499 16.5989M22.5775 50.5184L30.4206 50.5184C30.9621 50.5184 31.401 50.0795 31.401 49.5381L31.401 46.24C31.401 45.8584 31.6182 45.51 31.9609 45.3421L36.1122 43.3076C36.4961 43.1194 36.9571 43.1961 37.2594 43.4984L39.5269 45.766C39.9098 46.1489 40.5306 46.1489 40.9134 45.766L46.4594 40.2201C46.8422 39.8372 46.8422 39.2165 46.4594 38.8336L44.1831 36.5573C43.8851 36.2593 43.8059 35.8063 43.9852 35.4249L45.8368 31.4852C46.0016 31.1345 46.3543 30.9106 46.7418 30.9106H50.0284C50.5699 30.9106 51.0088 30.4717 51.0088 29.9302V22.0871C51.0088 21.5456 50.5699 21.1067 50.0284 21.1067H46.775C46.3706 21.1067 46.006 20.863 45.8512 20.4894L43.9421 15.8807C43.7873 15.507 43.8729 15.0769 44.1589 14.7909L46.4594 12.4904C46.8422 12.1075 46.8422 11.4868 46.4594 11.1039L40.9134 5.55797C40.5306 5.1751 39.9098 5.1751 39.5269 5.55797L37.203 7.88195C36.9289 8.15599 36.5212 8.24701 36.1567 8.11556L32.0618 6.63907C31.6653 6.4961 31.401 6.11985 31.401 5.69835L31.401 2.47923C31.401 1.93778 30.9621 1.49884 30.4206 1.49884H26.499L22.5775 1.49884C22.036 1.49884 21.5971 1.93778 21.5971 2.47923L21.5971 5.68607C21.5971 6.11357 21.3253 6.49379 20.9208 6.6322L16.5467 8.12905C16.1856 8.25261 15.7857 8.15988 15.5158 7.89002L13.1837 5.55797C12.8009 5.1751 12.1801 5.1751 11.7973 5.55796L6.25133 11.1039C5.86846 11.4868 5.86846 12.1075 6.25132 12.4904L8.50058 14.7396C8.8117 15.0508 8.88292 15.5287 8.67601 15.917L6.19307 20.5769C6.01934 20.903 5.67998 21.1067 5.31053 21.1067H1.98923C1.44777 21.1067 1.00884 21.5456 1.00884 22.0871L1.00884 29.9302C1.00884 30.4717 1.44777 30.9106 1.98923 30.9106L5.24261 30.9106C5.64707 30.9106 6.01172 31.1543 6.16649 31.5279L8.07536 36.1365C8.23013 36.5102 8.14458 36.9403 7.85858 37.2263L5.55808 39.5268C5.17521 39.9097 5.17522 40.5304 5.55808 40.9133L11.104 46.4592C11.4869 46.8421 12.1076 46.8421 12.4905 46.4592L14.839 44.1107C15.1003 43.8495 15.4843 43.7536 15.8377 43.8613L20.8886 45.4006C21.3095 45.5288 21.5971 45.9171 21.5971 46.3571L21.5971 49.5381C21.5971 50.0795 22.036 50.5184 22.5775 50.5184ZM26.499 13.7537V13.7537C19.7308 13.7537 14.2441 19.2404 14.2441 26.0086V26.0086V26.0086C14.2441 32.7768 19.7308 38.2636 26.499 38.2636V38.2636V38.2636C33.2672 38.2635 38.7539 32.7768 38.7539 26.0086V26.0086V26.0086C38.7539 19.2404 33.2672 13.7537 26.499 13.7537V13.7537Z" stroke="#D0264F" stroke-width="1.5" stroke-linecap="round"/>
</svg>
