<svg width="52" height="39" viewBox="0 0 52 39" fill="none" xmlns="http://www.w3.org/2000/svg">
<path d="M15.5 11H31.5M15.5 11V2C15.5 1.44772 15.9477 1 16.5 1H30.5C31.0523 1 31.5 1.44772 31.5 2V6M15.5 11V16M31.5 11V20C31.5 20.5523 31.0523 21 30.5 21H23.5M31.5 11V6M1 25V23C1 22.4477 1.44772 22 2 22H6.5M1 25H12M1 25V32M12 25V23C12 22.4477 11.5523 22 11 22H6.5M12 25V32M1 32V37C1 37.5523 1.44771 38 2 38H11C11.5523 38 12 37.5523 12 37V32M1 32H12M4 35H9M15.5 38H20.5026M31.4999 38H26.4937M26.4937 38V35M26.4937 38H20.5026M26.4937 35H20.5026M26.4937 35H30.5C31.0523 35 31.5 34.5523 31.5 34V32M20.5026 38V35M20.5026 35H16.5C15.9477 35 15.5 34.5523 15.5 34V32M15.5 32V26C15.5 25.4477 15.9477 25 16.5 25H23.5M15.5 32H31.5M31.5 32V26C31.5 25.4477 31.0523 25 30.5 25H23.5M36.4999 35H35.1C35.0448 35 35 35.0448 35 35.1V36.5858C35 36.851 35.1053 37.1054 35.2929 37.2929L35.707 37.7071C35.8946 37.8946 36.1489 38 36.4142 38H49.5857C49.8509 38 50.1053 37.8947 50.2928 37.7071L50.7071 37.2929C50.8946 37.1054 51 36.851 51 36.5858V35.1C51 35.0448 50.9552 35 50.9 35H49.4999M36.4999 35V26C36.4999 25.4477 36.9476 25 37.4999 25H43.0463M36.4999 35H49.4999M49.4999 35L49.5834 26.0093C49.5886 25.4534 49.1393 25 48.5834 25H43.0463M18.5 6H23M26 6H28.5M18.5 16H20M23 16H28.5M6.5 22V17C6.5 16.4477 6.94772 16 7.5 16H15.5M43.0463 25V7C43.0463 6.44771 42.5986 6 42.0463 6H31.5M23.5 25L23.5 21M23.5 21H16.5C15.9477 21 15.5 20.5523 15.5 20V16" stroke="#D0264F" stroke-width="1.5" stroke-linecap="round"/>
</svg>
