<svg width="25" height="25" viewBox="0 0 25 25" fill="none" xmlns="http://www.w3.org/2000/svg">
<path d="M25 12.0423C24.9949 14.2253 24.5172 16.1511 23.5515 17.9408C22.6418 19.6296 21.3865 21.0362 19.8059 22.1453C18.4184 23.1183 16.8988 23.7837 15.2369 24.1265C13.3971 24.5046 11.5573 24.4643 9.73273 24.0307C8.7671 23.7988 7.84211 23.4459 6.97304 22.9771C6.82565 22.8964 6.69859 22.8914 6.54104 22.9418C4.62501 23.5518 2.70898 24.1568 0.792947 24.7617C0.574408 24.8323 0.360951 24.8979 0.142411 24.9785C-0.0100579 25.034 -0.0202225 24.9785 0.020436 24.8525C0.244058 24.2022 0.462597 23.5518 0.686219 22.8964C1.16396 21.4798 1.64169 20.0632 2.1296 18.6516C2.19567 18.4651 2.0991 18.3441 2.02287 18.213C1.42315 17.1795 0.99624 16.0805 0.73196 14.921C0.157658 12.4204 0.360951 9.97033 1.32659 7.59584C1.88564 6.22459 2.68357 4.99449 3.70511 3.90555C5.00618 2.51413 6.54612 1.49073 8.32493 0.8051C9.98685 0.164845 11.7047 -0.0821829 13.4733 0.0236861C15.8976 0.169886 18.1033 0.966425 20.0397 2.41834C22.5452 4.29374 24.1208 6.75897 24.751 9.81909C24.9187 10.6005 24.9797 11.392 25 12.0423ZM12.6246 2.06545C12.1519 2.04528 11.5979 2.10074 11.044 2.1814C10.8254 2.21165 10.612 2.25702 10.3985 2.31247C7.09501 3.1443 4.72157 5.10036 3.32394 8.18064C2.51585 9.96025 2.29731 11.8407 2.60225 13.7665C2.84112 15.289 3.41034 16.6905 4.29974 17.9559C4.39631 18.097 4.41155 18.218 4.35565 18.3743C3.97956 19.4683 3.61363 20.5673 3.24262 21.6663C3.22229 21.7268 3.1613 21.7974 3.21721 21.8529C3.27312 21.9134 3.34427 21.8478 3.40526 21.8277C4.51828 21.4748 5.63131 21.1269 6.73417 20.7589C6.98829 20.6732 7.17125 20.7135 7.38979 20.8446C9.8852 22.3318 12.5534 22.725 15.3639 21.9839C17.4985 21.4244 19.257 20.2699 20.6495 18.5659C21.9964 16.9174 22.7485 15.0319 22.901 12.9246C23.0179 11.3063 22.7638 9.73339 22.1132 8.23106C21.295 6.34054 20.0193 4.82812 18.2964 3.7039C16.6091 2.60487 14.7439 2.04024 12.6246 2.06545Z" fill="white"/>
<path d="M6.5567 9.26414C6.57703 8.12983 7.02427 7.19717 7.89843 6.47121C8.14746 6.26452 8.44732 6.17881 8.77767 6.23427C8.91998 6.25443 9.06736 6.2746 9.20459 6.25948C9.55018 6.23427 9.74839 6.42584 9.85512 6.70816C10.1804 7.55511 10.4955 8.4071 10.8157 9.25406C10.8767 9.41538 10.8614 9.56158 10.7852 9.71282C10.587 10.1212 10.2719 10.4388 9.95677 10.7564C9.68232 11.0337 9.66708 11.1244 9.85512 11.4622C10.7649 13.0956 12.0202 14.366 13.7583 15.1374C13.8447 15.1726 13.921 15.2331 14.0023 15.2684C14.2208 15.3743 14.419 15.3642 14.602 15.1777C14.9578 14.8197 15.2881 14.4366 15.6083 14.0434C15.8573 13.7358 15.9742 13.6905 16.3249 13.8468C17.1787 14.24 17.9919 14.6988 18.8203 15.1424C19.0948 15.2886 19.1253 15.4902 19.0846 15.8583C18.9169 17.3556 17.7632 18.0361 16.4469 18.2529C16.0047 18.3235 15.588 18.2832 15.1712 18.1521C13.9515 17.769 12.752 17.3253 11.6746 16.6296C10.6683 15.9793 9.8043 15.1676 9.04703 14.245C8.3101 13.3426 7.65448 12.3898 7.11067 11.3563C6.80573 10.7665 6.5567 9.84894 6.5567 9.26414Z" fill="white"/>
</svg>
