<svg width="29" height="42" viewBox="0 0 29 42" fill="none" xmlns="http://www.w3.org/2000/svg">
<path d="M10.0948 26.2C10.3215 26.4267 10.689 26.4267 10.9157 26.2C11.1424 25.9733 11.1424 25.6058 10.9157 25.3791C10.689 25.1524 10.3215 25.1524 10.0948 25.3791C9.86809 25.6058 9.86809 25.9733 10.0948 26.2Z" fill="white"/>
<path d="M10.2105 19.7239C10.4052 19.9186 10.721 19.9186 10.9157 19.7239C11.1104 19.5291 11.1104 19.2134 10.9157 19.0187C10.721 18.8239 10.4052 18.8239 10.2105 19.0187C10.0158 19.2134 10.0158 19.5291 10.2105 19.7239Z" fill="white"/>
<path d="M1.3855 22.7V27C1.3855 28.1046 2.28093 29 3.3855 29H17.5855C18.6901 29 19.5855 28.1046 19.5855 27V22.7M1.3855 22.7H19.5855M1.3855 22.7V7.3M19.5855 22.7V7.3M19.5855 7.3V3C19.5855 1.89543 18.6901 1 17.5855 1H3.3855C2.28093 1 1.3855 1.89543 1.3855 3V7.3M19.5855 7.3H1.3855M8.48901 17.0482C9.63451 15.9027 11.4917 15.9027 12.6373 17.0482M4.34076 12.9C7.77728 9.46349 13.349 9.46348 16.7855 12.9M6.41489 14.9741C8.7059 12.6831 12.4204 12.6831 14.7114 14.9741M7.6855 3.8H13.2855M10.9157 26.2C10.689 26.4267 10.3215 26.4267 10.0948 26.2C9.86809 25.9733 9.86809 25.6058 10.0948 25.3791C10.3215 25.1524 10.689 25.1524 10.9157 25.3791C11.1424 25.6058 11.1424 25.9733 10.9157 26.2ZM10.9157 19.7239C10.721 19.9186 10.4052 19.9186 10.2105 19.7239C10.0158 19.5291 10.0158 19.2134 10.2105 19.0187C10.4052 18.8239 10.721 18.8239 10.9157 19.0187C11.1104 19.2134 11.1104 19.5291 10.9157 19.7239Z" stroke="#D0264F" stroke-width="1.5"/>
</svg>
