<svg width="29" height="42" viewBox="0 0 29 42" fill="none" xmlns="http://www.w3.org/2000/svg">
<path d="M14.0909 1V11.9091M14.0909 11.9091L17.9946 11.9091C18.2865 11.9091 18.5639 12.0367 18.7539 12.2583L26.9411 21.81C27.0964 21.9913 27.1818 22.2221 27.1818 22.4608V25.4545C27.1818 26.0068 26.7341 26.4545 26.1818 26.4545H19.9091M14.0909 11.9091H10.1872C9.89528 11.9091 9.61793 12.0367 9.42795 12.2583L1.24074 21.81C1.08539 21.9913 1 22.2221 1 22.4608L1 25.4545C1 26.0068 1.44772 26.4545 2 26.4545H8.27273M8.27273 26.4545V26.4545C8.27273 29.6678 10.8776 32.2727 14.0909 32.2727V32.2727C17.3042 32.2727 19.9091 29.6678 19.9091 26.4545V26.4545M8.27273 26.4545H19.9091M14.0909 35.1818V41M21.3636 30.8182H27.1818M6.81818 30.8182H1M18.4545 33.7273L22.8182 38.0909M9.72727 33.7273L5.36364 38.0909" stroke="#D0264F" stroke-width="2" stroke-linecap="round"/>
</svg>
