<svg width="42" height="26" viewBox="0 0 42 26" fill="none" xmlns="http://www.w3.org/2000/svg">
<path d="M17.5263 9H21.7368M17.5263 12L21.7368 14M17.5263 6L21.7368 4M14 17H2C1.44772 17 1 16.5523 1 16V2C1 1.44772 1.44772 1 2 1H26C26.5523 1 27 1.44772 27 2V16C27 16.5523 26.5523 17 26 17H14ZM14 17V21M14 21H23.5C23.7761 21 24 21.2239 24 21.5V24.5C24 24.7761 23.7761 25 23.5 25H4.5C4.22386 25 4 24.7761 4 24.5V21.5C4 21.2239 4.22386 21 4.5 21H14ZM11.4555 6.84482L14.3531 5.00972C14.3597 5.0055 14.3684 5.01029 14.3684 5.01817V12.9818C14.3684 12.9897 14.3597 12.9945 14.3531 12.9903L11.4555 11.1552C11.2955 11.0538 11.1099 11 10.9205 11H6.1C6.04477 11 6 10.9552 6 10.9V7.1C6 7.04477 6.04477 7 6.1 7H10.9205C11.1099 7 11.2955 6.94618 11.4555 6.84482ZM36 19V19C37.1046 19 38 18.1046 38 17V17C38 15.8954 37.1046 15 36 15V15C34.8954 15 34 15.8954 34 17V17C34 18.1046 34.8954 19 36 19ZM36 9V9C37.1046 9 38 8.10457 38 7V7C38 5.89543 37.1046 5 36 5V5C34.8954 5 34 5.89543 34 7V7C34 8.10457 34.8954 9 36 9ZM31.5 23H40.5C40.7761 23 41 22.7761 41 22.5V1.5C41 1.22386 40.7761 1 40.5 1H31.5C31.2239 1 31 1.22386 31 1.5V22.5C31 22.7761 31.2239 23 31.5 23Z" stroke="white" stroke-width="2" stroke-linecap="round"/>
</svg>
