<svg width="34" height="42" viewBox="0 0 34 42" fill="none" xmlns="http://www.w3.org/2000/svg">
<path d="M22.2941 17.4706V17.4706C23.6307 17.4706 24.7143 18.5541 24.7143 19.8908V21.8739C24.7143 26.1344 21.2605 29.5882 17 29.5882V29.5882C12.7395 29.5882 9.28572 26.1344 9.28572 21.8739V19.6226C9.28572 18.4341 10.2492 17.4706 11.4377 17.4706V17.4706M22.2941 17.4706V15.7059C22.2941 12.782 19.9239 10.4118 17 10.4118V10.4118V10.4118C13.928 10.4118 11.4377 12.9021 11.4377 15.9741V17.4706M22.2941 17.4706H11.4377M17 24.8824V22.1765M17 21V22.1765M17 22.1765H18.2857M17 22.1765H15.7143M17.5658 40.6117L22.3222 37.3475C25.5595 35.1258 28.0712 32.0005 29.5443 28.3611L31.5389 23.4332C32.5039 21.0491 33 18.5013 33 15.9294V8.71064C33 8.31446 32.7661 7.95564 32.4036 7.79572L17.8073 1.35615C17.293 1.12927 16.707 1.12927 16.1927 1.35615L1.59636 7.79572C1.23389 7.95564 1 8.31446 1 8.71064V15.9294C1 18.5013 1.49608 21.0491 2.46107 23.4332L4.45567 28.3611C5.92877 32.0005 8.44051 35.1258 11.6778 37.3475L16.4342 40.6117C16.7751 40.8457 17.2249 40.8457 17.5658 40.6117Z" stroke="#D0264F" stroke-width="2" stroke-linecap="round"/>
</svg>
