<svg width="23" height="42" viewBox="0 0 23 42" fill="none" xmlns="http://www.w3.org/2000/svg">
<path d="M6.18919 25.1892L6.74085 26.0233L7.18919 25.7267V25.1892H6.18919ZM13.1081 25.1892H12.1081V25.7267L12.5564 26.0233L13.1081 25.1892ZM10.6486 4.99324C10.6449 4.44097 10.1942 3.99629 9.64189 4.00002C9.08962 4.00375 8.64494 4.45448 8.64867 5.00676L10.6486 4.99324ZM2.54129 28.0739L3.34876 28.6638L2.54129 28.0739ZM4.78701 26.1166L5.33867 26.9507L4.78701 26.1166ZM1.73383 27.484C-0.905845 31.0971 -0.527914 36.1036 2.84366 39.313L4.2226 37.8644C1.58209 35.3509 1.2988 31.4698 3.34876 28.6638L1.73383 27.484ZM2.84366 39.313C6.60732 42.8957 12.69 42.8957 16.4536 39.313L15.0747 37.8644C12.0833 40.7119 7.21395 40.7119 4.2226 37.8644L2.84366 39.313ZM16.4536 39.313C19.8252 36.1036 20.2031 31.0971 17.5635 27.484L15.9485 28.6638C17.9985 31.4698 17.7152 35.3509 15.0747 37.8644L16.4536 39.313ZM5.33867 26.9507L6.74085 26.0233L5.63753 24.3551L4.23535 25.2825L5.33867 26.9507ZM15.062 25.2825L13.6598 24.3551L12.5564 26.0233L13.9586 26.9507L15.062 25.2825ZM14.1081 25.1892V4.45946H12.1081V25.1892H14.1081ZM5.18919 19V25.1892H7.18919V19H5.18919ZM5.18919 4.45946V7.0473H7.18919V4.45946H5.18919ZM5.18919 7.0473V10.0709H7.18919V7.0473H5.18919ZM5.18919 13.0946V16.1182H7.18919V13.0946H5.18919ZM16.1351 6.32432H22.6216V4.32432H16.1351V6.32432ZM16.1351 10.6486H20.4595V8.64865H16.1351V10.6486ZM16.1351 14.973H22.6216V12.973H16.1351V14.973ZM16.1351 23.6216H22.6216V21.6216H16.1351V23.6216ZM16.1351 19.2973H20.4595V17.2973H16.1351V19.2973ZM8.64867 5.00676L8.81081 29.0068L10.8108 28.9932L10.6486 4.99324L8.64867 5.00676ZM12.8108 33C12.8108 34.6569 11.4676 36 9.81079 36V38C12.5722 38 14.8108 35.7614 14.8108 33H12.8108ZM6.81079 33C6.81079 31.3431 8.15394 30 9.81079 30V28C7.04937 28 4.81079 30.2386 4.81079 33H6.81079ZM7.18919 4.45946C7.18919 3.10114 8.29033 2 9.64865 2V0C7.18576 0 5.18919 1.99657 5.18919 4.45946H7.18919ZM9.81079 30C11.4676 30 12.8108 31.3431 12.8108 33H14.8108C14.8108 30.2386 12.5722 28 9.81079 28V30ZM9.81079 36C8.15394 36 6.81079 34.6569 6.81079 33H4.81079C4.81079 35.7614 7.04937 38 9.81079 38V36ZM14.1081 4.45946C14.1081 1.99656 12.1115 0 9.64865 0V2C11.007 2 12.1081 3.10114 12.1081 4.45946H14.1081ZM17.5635 27.484C16.8595 26.5205 15.9048 25.84 15.062 25.2825L13.9586 26.9507C14.7844 27.4968 15.4723 28.012 15.9485 28.6638L17.5635 27.484ZM3.34876 28.6638C3.82497 28.012 4.51293 27.4968 5.33867 26.9507L4.23535 25.2825C3.3925 25.84 2.43777 26.5205 1.73383 27.484L3.34876 28.6638Z" fill="#ffffff"/>
</svg>
