<svg width="29" height="42" viewBox="0 0 29 42" fill="none" xmlns="http://www.w3.org/2000/svg">
<path d="M16.7855 15.7C16.3989 15.7 16.0855 16.0134 16.0855 16.4C16.0855 16.7866 16.3989 17.1 16.7855 17.1C17.1721 17.1 17.4855 16.7866 17.4855 16.4C17.4855 16.0134 17.1721 15.7 16.7855 15.7Z" fill="white"/>
<path d="M16.7855 12.9C16.3989 12.9 16.0855 13.2134 16.0855 13.6C16.0855 13.9866 16.3989 14.3 16.7855 14.3C17.1721 14.3 17.4855 13.9866 17.4855 13.6C17.4855 13.2134 17.1721 12.9 16.7855 12.9Z" fill="white"/>
<path d="M13.9855 12.9C13.5989 12.9 13.2855 13.2134 13.2855 13.6C13.2855 13.9866 13.5989 14.3 13.9855 14.3C14.3721 14.3 14.6855 13.9866 14.6855 13.6C14.6855 13.2134 14.3721 12.9 13.9855 12.9Z" fill="white"/>
<path d="M13.9855 15.7C13.5989 15.7 13.2855 16.0134 13.2855 16.4C13.2855 16.7866 13.5989 17.1 13.9855 17.1C14.3721 17.1 14.6855 16.7866 14.6855 16.4C14.6855 16.0134 14.3721 15.7 13.9855 15.7Z" fill="white"/>
<path d="M9.62081 13.353C9.62081 11.0789 11.4643 9.23532 13.7385 9.23532M1.38553 13.353C1.38553 6.53064 6.91612 1.00005 13.7385 1.00005M5.50317 13.353C5.50317 8.80475 9.19023 5.11769 13.7385 5.11769M13.7385 20.7647C11.4643 20.7647 9.62081 18.9212 9.62081 16.6471M13.7385 29C6.91613 29 1.38553 23.4694 1.38553 16.6471M13.7385 24.8824C9.19024 24.8824 5.50317 21.1953 5.50317 16.6471M21.1502 16.6471C21.1502 18.9212 19.3067 20.7647 17.0326 20.7647M29.3855 16.6471C29.3855 23.4694 23.8549 29 17.0326 29M25.2678 16.6471C25.2678 21.1953 21.5808 24.8824 17.0326 24.8824M17.0326 9.23528C19.3067 9.23528 21.1502 11.0788 21.1502 13.3529M17.0326 0.999999C23.8549 0.999999 29.3855 6.53059 29.3855 13.3529M17.0326 5.11764C21.5808 5.11764 25.2679 8.8047 25.2679 13.3529M16.0855 16.4C16.0855 16.0134 16.3989 15.7 16.7855 15.7C17.1721 15.7 17.4855 16.0134 17.4855 16.4C17.4855 16.7866 17.1721 17.1 16.7855 17.1C16.3989 17.1 16.0855 16.7866 16.0855 16.4ZM16.0855 13.6C16.0855 13.2134 16.3989 12.9 16.7855 12.9C17.1721 12.9 17.4855 13.2134 17.4855 13.6C17.4855 13.9866 17.1721 14.3 16.7855 14.3C16.3989 14.3 16.0855 13.9866 16.0855 13.6ZM13.2855 13.6C13.2855 13.2134 13.5989 12.9 13.9855 12.9C14.3721 12.9 14.6855 13.2134 14.6855 13.6C14.6855 13.9866 14.3721 14.3 13.9855 14.3C13.5989 14.3 13.2855 13.9866 13.2855 13.6ZM13.2855 16.4C13.2855 16.0134 13.5989 15.7 13.9855 15.7C14.3721 15.7 14.6855 16.0134 14.6855 16.4C14.6855 16.7866 14.3721 17.1 13.9855 17.1C13.5989 17.1 13.2855 16.7866 13.2855 16.4Z" stroke="#FFFFFF" stroke-width="1.5"/>
</svg>
