<svg width="29" height="42" viewBox="0 0 29 42" fill="none" xmlns="http://www.w3.org/2000/svg">
<path d="M1.3855 15V15C1.3855 7.26801 7.65351 1 15.3855 1V1C23.1175 1 29.3855 7.26801 29.3855 15V15M26.5855 15V15C26.5855 8.81441 21.5711 3.8 15.3855 3.8V3.8C9.19991 3.8 4.1855 8.81441 4.1855 15V15M6.9855 15V15C6.9855 10.3608 10.7463 6.6 15.3855 6.6V6.6C20.0247 6.6 23.7855 10.3608 23.7855 15V15M27.9855 19.9L23.7855 17.45M2.7855 19.9L6.9855 17.45M23.7855 17.45L15.4385 12.2331C15.4061 12.2129 15.3649 12.2129 15.3325 12.2331L6.9855 17.45M23.7855 17.45V28.9C23.7855 28.9552 23.7407 29 23.6855 29H20.2855M6.9855 17.45V28.9C6.9855 28.9552 7.03027 29 7.0855 29H16.0855M20.2855 29V22.8C20.2855 22.7448 20.2407 22.7 20.1855 22.7H16.1855C16.1303 22.7 16.0855 22.7448 16.0855 22.8V29M20.2855 29H16.0855M10.5855 24.1H13.1855C13.2407 24.1 13.2855 24.0552 13.2855 24V19.3C13.2855 19.2448 13.2407 19.2 13.1855 19.2H10.5855C10.5303 19.2 10.4855 19.2448 10.4855 19.3V24C10.4855 24.0552 10.5303 24.1 10.5855 24.1Z" stroke="#D0264F" stroke-width="1.5"/>
</svg>
