<svg width="13" height="15" viewBox="0 0 13 15" fill="none" xmlns="http://www.w3.org/2000/svg">
<path d="M0.75963 1.87566V13.1251C0.75963 13.7464 1.26978 14.25 1.89908 14.25H10.255C10.8843 14.25 11.3945 13.7464 11.3945 13.1251V3.75056H8.73575C8.52598 3.75056 8.35593 3.58268 8.35593 3.37558V0.750714H1.89908C1.26978 0.750714 0.75963 1.25437 0.75963 1.87566H0C0 0.840176 0.850245 0.000751745 1.89908 0.000751745H8.7145C8.81533 -0.00556254 8.9203 0.0276301 9.00432 0.110581L12.0428 3.11043C12.1269 3.19338 12.1605 3.29701 12.1541 3.39656V13.1251C12.1541 14.1606 11.3038 15 10.255 15H1.89908C0.850245 15 0 14.1606 0 13.1251V1.87566H0.75963ZM9.11556 1.28102V3.0006H10.8573L9.11556 1.28102Z" fill="black"/>
<path d="M6.10966 7.49963C6.10966 7.27872 5.93057 7.09963 5.70966 7.09963C5.48874 7.09963 5.30966 7.27872 5.30966 7.49963H6.10966ZM5.42681 13.0322C5.58302 13.1884 5.83629 13.1884 5.9925 13.0322L8.53808 10.4866C8.69429 10.3304 8.69429 10.0772 8.53808 9.92094C8.38187 9.76473 8.12861 9.76473 7.9724 9.92094L5.70966 12.1837L3.44691 9.92094C3.2907 9.76473 3.03744 9.76473 2.88123 9.92094C2.72502 10.0772 2.72502 10.3304 2.88123 10.4866L5.42681 13.0322ZM5.30966 7.49963V12.7494H6.10966V7.49963H5.30966Z" fill="black"/>
</svg>
