<svg width="162" height="162" viewBox="0 0 162 162" fill="none" xmlns="http://www.w3.org/2000/svg">
<path d="M81 0C36.263 0 0 36.263 0 81C0 125.737 36.263 162 81 162C125.737 162 162 125.737 162 81C162 36.263 125.737 0 81 0ZM81 149.344C43.2537 149.344 12.6562 118.746 12.6562 81C12.6562 43.2537 43.2537 12.6562 81 12.6562C118.746 12.6562 149.344 43.2537 149.344 81C149.344 118.746 118.746 149.344 81 149.344Z" fill="#A8A8A8" fill-opacity="0.6"/>
<path d="M111.901 75.2664L63.1189 46.9183C57.7894 43.764 52.6816 46.3051 52.6816 52.5642V109.443C52.6816 115.692 57.7894 118.238 63.1189 115.079L111.515 86.7361C116.864 83.5819 117.245 78.4206 111.901 75.2664Z" fill="#A8A8A8" fill-opacity="0.6"/>
</svg>
