<svg width="30" height="30" viewBox="0 0 30 30" fill="none" xmlns="http://www.w3.org/2000/svg">
<path d="M4.5 26.1808H1.1C1.04477 26.1808 1 26.2256 1 26.2808V28.9C1 28.9552 1.04477 29 1.1 29H28.9C28.9552 29 29 28.9552 29 28.9V26.2808C29 26.2256 28.9552 26.1808 28.9 26.1808H25.5M4.5 26.1808V15.4411M4.5 26.1808L10.8 26.2M25.5 26.1808H16.5555M25.5 26.1808V16.9753M4.5 15.4411V13C4.5 12.9448 4.45523 12.9 4.4 12.9H3.2C3.14477 12.9 3.1 12.8552 3.1 12.8V8.80001C3.1 8.74478 3.14477 8.70001 3.2 8.70001H5.17639C5.19192 8.70001 5.20723 8.6964 5.22111 8.68945L14.9534 3.82331C14.9826 3.80871 15.0171 3.80929 15.0458 3.82486L20.4444 6.75344M4.5 15.4411H16.4555C16.5108 15.4411 16.5555 15.4859 16.5555 15.5411V16.9753M16.5555 26.1808V16.9753M16.5555 26.1808L14.3 26.2M16.5555 16.9753H25.5M25.5 16.9753V13C25.5 12.9448 25.5448 12.9 25.6 12.9H26.8C26.8552 12.9 26.9 12.8552 26.9 12.8V8.80001C26.9 8.74478 26.8552 8.70001 26.8 8.70001H24.82C24.8068 8.70001 24.7937 8.6974 24.7815 8.69234L21.6111 7.37304M14.3 26.2V20.7C14.3 20.6448 14.2552 20.6 14.2 20.6H10.9C10.8448 20.6 10.8 20.6448 10.8 20.7V26.2M14.3 26.2H10.8M20.4444 6.75344L21.6111 7.37304M20.4444 6.75344V3.10001M21.6111 7.37304V3.10001M20.4444 3.10001L19.3 3.1C19.2448 3.1 19.2 3.05523 19.2 3V1.1C19.2 1.04477 19.2448 1 19.3 1H22.6C22.6552 1 22.7 1.04477 22.7 1.1V3C22.7 3.05523 22.6552 3.1 22.6 3.1L21.6111 3.10001M20.4444 3.10001H21.6111M19.3778 23.8795H23.0667C23.1219 23.8795 23.1667 23.8347 23.1667 23.7795V19.3767C23.1667 19.3215 23.1219 19.2767 23.0667 19.2767H19.3778C19.3225 19.2767 19.2778 19.3215 19.2778 19.3767V23.7795C19.2778 23.8347 19.3225 23.8795 19.3778 23.8795ZM14.3707 12.9707L14.9293 13.5293C14.9683 13.5683 15.0317 13.5683 15.0707 13.5293L15.6293 12.9707C15.6683 12.9317 15.6683 12.8683 15.6293 12.8293L15.0707 12.2707C15.0317 12.2317 14.9683 12.2317 14.9293 12.2707L14.3707 12.8293C14.3317 12.8683 14.3317 12.9317 14.3707 12.9707ZM16.2745 7.36976L13.7315 7.30343C13.6654 7.3017 13.6159 7.36349 13.6319 7.42765L14.2811 10.0242C14.2922 10.0688 14.3322 10.1 14.3781 10.1H15.6224C15.6681 10.1 15.7079 10.0691 15.7193 10.0249L16.3688 7.49459C16.3848 7.43237 16.3388 7.37144 16.2745 7.36976ZM6.7 19.9H8.6C8.65522 19.9 8.7 19.9448 8.7 20V22.6C8.7 22.6552 8.65523 22.7 8.6 22.7H6.7C6.64477 22.7 6.6 22.6552 6.6 22.6V20C6.6 19.9448 6.64477 19.9 6.7 19.9Z" stroke="black" stroke-width="1.5"/>
</svg>
