<svg width="30" height="28" viewBox="0 0 30 28" fill="none" xmlns="http://www.w3.org/2000/svg">
<path d="M28.8483 10.4966L28.318 11.0269L28.8483 10.4966ZM25.7682 7.41649L26.2985 6.88616L25.7682 7.41649ZM15.5026 17.5863L16.2513 17.6294V17.6294L15.5026 17.5863ZM15.3147 20.8543L14.5659 20.8112L15.3147 20.8543ZM15.4105 20.9501L15.4536 21.6988H15.4536L15.4105 20.9501ZM18.6785 20.7622L18.7215 21.511H18.7215L18.6785 20.7622ZM27.1125 12.3606L26.5822 11.8303L27.1125 12.3606ZM28.8483 10.6249L29.3786 11.1552L28.8483 10.6249ZM28.9734 14.2215L29.5038 13.6912L28.9734 14.2215ZM23.7075 18.5551C23.4146 18.848 23.4146 19.3229 23.7075 19.6158C24.0004 19.9087 24.4753 19.9087 24.7682 19.6158L23.7075 18.5551ZM20.3742 9.16727C20.3742 9.58149 20.71 9.91727 21.1242 9.91727C21.5384 9.91727 21.8742 9.58149 21.8742 9.16727H20.3742ZM21.8742 20.9501C21.8742 20.5359 21.5384 20.2001 21.1242 20.2001C20.71 20.2001 20.3742 20.5359 20.3742 20.9501H21.8742ZM21.4182 18.055L21.9485 18.5853L21.4182 18.055ZM5.99111 2.97242C5.5769 2.97242 5.24111 3.30821 5.24111 3.72242C5.24111 4.13664 5.5769 4.47242 5.99111 4.47242V2.97242ZM10.0747 4.47242C10.489 4.47242 10.8247 4.13664 10.8247 3.72242C10.8247 3.30821 10.489 2.97242 10.0747 2.97242V4.47242ZM12.7972 2.97242C12.383 2.97242 12.0472 3.30821 12.0472 3.72242C12.0472 4.13664 12.383 4.47242 12.7972 4.47242V2.97242ZM18.7374 4.47242C19.1516 4.47242 19.4874 4.13664 19.4874 3.72242C19.4874 3.30821 19.1516 2.97242 18.7374 2.97242V4.47242ZM5.99111 5.69485C5.5769 5.69485 5.24111 6.03064 5.24111 6.44485C5.24111 6.85906 5.5769 7.19485 5.99111 7.19485V5.69485ZM18.7374 7.19485C19.1516 7.19485 19.4874 6.85906 19.4874 6.44485C19.4874 6.03064 19.1516 5.69485 18.7374 5.69485V7.19485ZM5.99111 8.41727C5.5769 8.41727 5.24111 8.75306 5.24111 9.16727C5.24111 9.58149 5.5769 9.91727 5.99111 9.91727V8.41727ZM11.8897 9.91727C12.3039 9.91727 12.6397 9.58149 12.6397 9.16727C12.6397 8.75306 12.3039 8.41727 11.8897 8.41727V9.91727ZM18.7374 9.91727C19.1516 9.91727 19.4874 9.58149 19.4874 9.16727C19.4874 8.75306 19.1516 8.41727 18.7374 8.41727V9.91727ZM16.4271 8.41727C16.0129 8.41727 15.6771 8.75306 15.6771 9.16727C15.6771 9.58149 16.0129 9.91727 16.4271 9.91727V8.41727ZM5.99111 14.0643C5.5769 14.0643 5.24111 14.4001 5.24111 14.8143C5.24111 15.2286 5.5769 15.5643 5.99111 15.5643V14.0643ZM13.7046 15.5643C14.1189 15.5643 14.4546 15.2286 14.4546 14.8143C14.4546 14.4001 14.1189 14.0643 13.7046 14.0643V15.5643ZM5.99111 18.3995C5.5769 18.3995 5.24111 18.7353 5.24111 19.1495C5.24111 19.5637 5.5769 19.8995 5.99111 19.8995V18.3995ZM9.16727 19.8995C9.58149 19.8995 9.91727 19.5637 9.91727 19.1495C9.91727 18.7353 9.58149 18.3995 9.16727 18.3995V19.8995ZM3.74421 25.6593H2V27.1593H3.74421V25.6593ZM1.75 25.4093V23.5979H0.25V25.4093H1.75ZM2 23.3479H3.74421V21.8479H2V23.3479ZM4.74421 1.75H22.8684V0.25H4.74421V1.75ZM23.1184 2V4.7114H24.6184V2H23.1184ZM23.7684 4.06139H21.2242V5.56139H23.7684V4.06139ZM17.516 21.8479H13.7046V23.3479H17.516V21.8479ZM20.1242 25.6593H13.7046V27.1593H20.1242V25.6593ZM13.7046 25.6593H3.74421V27.1593H13.7046V25.6593ZM12.9546 22.5979V26.4093H14.4546V22.5979H12.9546ZM13.7046 21.8479H3.74421V23.3479H13.7046V21.8479ZM2.99421 2V22.5979H4.49421V2H2.99421ZM29.3786 9.96624L26.2985 6.88616L25.2379 7.94682L28.318 11.0269L29.3786 9.96624ZM14.7538 17.5433L14.5659 20.8112L16.0635 20.8973L16.2513 17.6294L14.7538 17.5433ZM15.4536 21.6988L18.7215 21.511L18.6354 20.0134L15.3675 20.2013L15.4536 21.6988ZM27.6429 12.891L29.3786 11.1552L28.318 10.0946L26.5822 11.8303L27.6429 12.891ZM26.5822 12.891L28.4431 14.7519L29.5038 13.6912L27.6429 11.8303L26.5822 12.891ZM28.4431 13.8195L23.7075 18.5551L24.7682 19.6158L29.5038 14.8802L28.4431 13.8195ZM28.4431 14.7519C28.1856 14.4944 28.1856 14.077 28.4431 13.8195L29.5038 14.8802C29.8321 14.5519 29.8321 14.0195 29.5038 13.6912L28.4431 14.7519ZM18.7215 21.511C18.9275 21.4991 19.1219 21.412 19.2677 21.2661L18.2071 20.2054C18.3215 20.0911 18.4739 20.0227 18.6354 20.0134L18.7215 21.511ZM14.5659 20.8112C14.5371 21.3129 14.9519 21.7277 15.4536 21.6988L15.3675 20.2013C15.7608 20.1787 16.0861 20.504 16.0635 20.8973L14.5659 20.8112ZM14.9987 16.997C14.8528 17.1429 14.7657 17.3373 14.7538 17.5433L16.2513 17.6294C16.2421 17.7909 16.1737 17.9433 16.0593 18.0577L14.9987 16.997ZM26.2985 6.88616C25.9702 6.55783 25.4379 6.55783 25.1095 6.88616L26.1702 7.94682C25.9128 8.20428 25.4953 8.20428 25.2379 7.94682L26.2985 6.88616ZM28.318 11.0269C28.0605 10.7694 28.0605 10.352 28.318 10.0946L29.3786 11.1552C29.707 10.8269 29.7069 10.2946 29.3786 9.96624L28.318 11.0269ZM21.8742 9.16727V4.91139H20.3742V9.16727H21.8742ZM21.8742 25.4093V20.9501H20.3742V25.4093H21.8742ZM25.1095 6.88616L17.7117 14.284L18.7724 15.3447L26.1702 7.94682L25.1095 6.88616ZM17.7117 14.284L14.9987 16.997L16.0593 18.0577L18.7724 15.3447L17.7117 14.284ZM19.2677 21.2661L21.9485 18.5853L20.8879 17.5247L18.2071 20.2054L19.2677 21.2661ZM21.9485 18.5853L27.6429 12.891L26.5822 11.8303L20.8879 17.5247L21.9485 18.5853ZM17.7064 15.3393L20.8826 18.58L21.9538 17.53L18.7777 14.2894L17.7064 15.3393ZM5.99111 4.47242H10.0747V2.97242H5.99111V4.47242ZM12.7972 4.47242H18.7374V2.97242H12.7972V4.47242ZM5.99111 7.19485H18.7374V5.69485H5.99111V7.19485ZM5.99111 9.91727H11.8897V8.41727H5.99111V9.91727ZM18.7374 8.41727H16.4271V9.91727H18.7374V8.41727ZM5.99111 15.5643H13.7046V14.0643H5.99111V15.5643ZM5.99111 19.8995H9.16727V18.3995H5.99111V19.8995ZM20.1242 27.1593C21.0907 27.1593 21.8742 26.3758 21.8742 25.4093H20.3742C20.3742 25.5474 20.2622 25.6593 20.1242 25.6593V27.1593ZM21.2242 4.06139C20.7547 4.06139 20.3742 4.44195 20.3742 4.91139H21.8742C21.8742 5.27038 21.5832 5.56139 21.2242 5.56139V4.06139ZM22.8684 1.75C23.0064 1.75 23.1184 1.86193 23.1184 2H24.6184C24.6184 1.0335 23.8349 0.25 22.8684 0.25V1.75ZM4.74421 0.25C3.77771 0.25 2.99421 1.0335 2.99421 2H4.49421C4.49421 1.86193 4.60614 1.75 4.74421 1.75V0.25ZM1.75 23.5979C1.75 23.4598 1.86193 23.3479 2 23.3479V21.8479C1.0335 21.8479 0.25 22.6314 0.25 23.5979H1.75ZM23.1184 4.7114C23.1184 4.35241 23.4094 4.06139 23.7684 4.06139V5.56139C24.2378 5.56139 24.6184 5.18084 24.6184 4.7114H23.1184ZM2 25.6593C1.86193 25.6593 1.75 25.5474 1.75 25.4093H0.25C0.25 26.3758 1.0335 27.1593 2 27.1593V25.6593Z" fill="black"/>
</svg>
