<svg width="17" height="30" viewBox="0 0 17 30" fill="none" xmlns="http://www.w3.org/2000/svg">
<path d="M5.01793 17.9324L5.43168 18.558L5.76793 18.3356V17.9324H5.01793ZM9.86117 17.9324H9.11117V18.3356L9.44743 18.558L9.86117 17.9324ZM8.18954 3.79493C8.18674 3.38073 7.84869 3.04722 7.43449 3.05002C7.02028 3.05282 6.68677 3.39086 6.68957 3.80507L8.18954 3.79493ZM12.666 20.3258L12.0273 20.719L12.666 20.3258ZM2.21312 20.3258L1.57447 19.9326L2.21312 20.3258ZM4.41257 18.3328L3.99882 17.7073L4.41257 18.3328ZM1.57447 19.9326C0.0307357 22.4399 0.393343 25.7152 2.64158 27.8553L3.67579 26.7689C1.94456 25.1209 1.67678 22.6274 2.85177 20.719L1.57447 19.9326ZM2.64158 27.8553C5.29546 30.3816 9.58365 30.3816 12.2375 27.8553L11.2033 26.7689C9.12867 28.7437 5.75043 28.7437 3.67579 26.7689L2.64158 27.8553ZM12.2375 27.8553C14.4858 25.7152 14.8484 22.4399 13.3046 19.9326L12.0273 20.719C13.2023 22.6274 12.9345 25.1209 11.2033 26.7689L12.2375 27.8553ZM4.82632 18.9584L5.43168 18.558L4.60418 17.3069L3.99882 17.7073L4.82632 18.9584ZM10.8803 17.7073L10.2749 17.3069L9.44743 18.558L10.0528 18.9584L10.8803 17.7073ZM10.6112 17.9324V3.42162H9.11117V17.9324H10.6112ZM4.26793 13.6V17.9324H5.76793V13.6H4.26793ZM4.26793 3.42162V5.23311H5.76793V3.42162H4.26793ZM4.26793 5.23311V7.34966H5.76793V5.23311H4.26793ZM4.26793 9.46622V11.5828H5.76793V9.46622H4.26793ZM11.9801 4.77703H16.5206V3.27703H11.9801V4.77703ZM11.9801 7.80405H15.0071V6.30405H11.9801V7.80405ZM11.9801 10.8311H16.5206V9.33108H11.9801V10.8311ZM11.9801 16.8851H16.5206V15.3851H11.9801V16.8851ZM11.9801 13.8581H15.0071V12.3581H11.9801V13.8581ZM6.68957 3.80507L6.80307 20.6051L8.30303 20.5949L8.18954 3.79493L6.68957 3.80507ZM9.60305 23.4C9.60305 24.5322 8.68524 25.45 7.55305 25.45V26.95C9.51366 26.95 11.1031 25.3606 11.1031 23.4H9.60305ZM5.50305 23.4C5.50305 22.2678 6.42087 21.35 7.55305 21.35V19.85C5.59244 19.85 4.00305 21.4394 4.00305 23.4H5.50305ZM5.76793 3.42162C5.76793 2.49841 6.51634 1.75 7.43955 1.75V0.25C5.68791 0.25 4.26793 1.66998 4.26793 3.42162H5.76793ZM7.55305 21.35C8.68524 21.35 9.60305 22.2678 9.60305 23.4H11.1031C11.1031 21.4394 9.51366 19.85 7.55305 19.85V21.35ZM7.55305 25.45C6.42087 25.45 5.50305 24.5322 5.50305 23.4H4.00305C4.00305 25.3606 5.59244 26.95 7.55305 26.95V25.45ZM10.6112 3.42162C10.6112 1.66998 9.19119 0.25 7.43955 0.25V1.75C8.36276 1.75 9.11117 2.49841 9.11117 3.42162H10.6112ZM13.3046 19.9326C12.6823 18.9218 11.7041 18.2521 10.8803 17.7073L10.0528 18.9584C10.8976 19.5171 11.6008 20.0263 12.0273 20.719L13.3046 19.9326ZM2.85177 20.719C3.27832 20.0263 3.9815 19.5171 4.82632 18.9584L3.99882 17.7073C3.17505 18.2521 2.1968 18.9218 1.57447 19.9326L2.85177 20.719Z" fill="black"/>
</svg>
