<svg width="27" height="30" viewBox="0 0 27 30" fill="none" xmlns="http://www.w3.org/2000/svg">
<path d="M4.024 24.8H2C1.44772 24.8 1 25.2477 1 25.8V28C1 28.5523 1.44771 29 2 29H4.024H15M4.024 24.8V2C4.024 1.44772 4.47172 1 5.024 1H25.2C25.7523 1 26.2 1.44772 26.2 2V5.1C26.2 5.15523 26.1552 5.2 26.1 5.2H23.276C23.2208 5.2 23.176 5.24477 23.176 5.3V28C23.176 28.5523 22.7283 29 22.176 29H15M4.024 24.8H15M19.2 24.8H15M15 24.8V29M12.2 20.6H9.5C9.44477 20.6 9.4 20.5552 9.4 20.5V14.4C9.4 14.3448 9.44477 14.3 9.5 14.3H26.1C26.1552 14.3 26.2 14.3448 26.2 14.4V20.5C26.2 20.5552 26.1552 20.6 26.1 20.6H23.4M12.2 20.6V16.4M12.2 20.6H15M15 20.6V17.8M15 20.6H17.8M17.8 20.6V16.4M17.8 20.6H20.6M20.6 20.6V17.8M20.6 20.6H23.4M23.4 20.6V16.4M26.2 11.4V7.4C26.2 7.34477 26.1552 7.3 26.1 7.3H12.2333C12.2117 7.3 12.1906 7.30702 12.1733 7.32L9.50667 9.32C9.45333 9.36 9.45333 9.44 9.50667 9.48L12.1733 11.48C12.1906 11.493 12.2117 11.5 12.2333 11.5H26.1C26.1552 11.5 26.2 11.4552 26.2 11.4Z" stroke="black" stroke-width="1.5"/>
</svg>
