<svg width="30" height="30" viewBox="0 0 30 30" fill="none" xmlns="http://www.w3.org/2000/svg">
<path d="M6.27906 4.90619C6.11504 4.74217 5.85066 4.74062 5.68855 4.90274C5.52644 5.06485 5.52797 5.32923 5.692 5.49325C5.85602 5.65727 6.1204 5.65882 6.28252 5.49671C6.44463 5.33459 6.44308 5.07021 6.27906 4.90619Z" fill="white"/>
<path d="M5.22705 15.0695C5.45901 15.0695 5.64705 14.8836 5.64705 14.6543C5.64705 14.4251 5.45901 14.2392 5.22705 14.2392C4.99509 14.2392 4.80705 14.4251 4.80705 14.6543C4.80705 14.8836 4.99509 15.0695 5.22705 15.0695Z" fill="white"/>
<path d="M6.279 25.0937C6.44302 24.9297 6.44456 24.6653 6.28245 24.5032C6.12034 24.3411 5.85595 24.3426 5.69193 24.5066C5.52791 24.6706 5.52637 24.935 5.68848 25.0971C5.85059 25.2593 6.11498 25.2577 6.279 25.0937Z" fill="white"/>
<path d="M16.3701 15.5799L19.1701 18.5L24.6548 12.1513M5.98557 7.71971C5.32238 7.71971 4.72093 7.45221 4.28089 7.01804C3.8261 6.56933 3.54371 5.94259 3.54371 5.24912M5.98526 2.67984C7.33386 2.67984 8.42712 3.78596 8.42712 5.15043M3.46543 24.8002C3.46543 24.1575 3.71665 23.5727 4.12733 23.1367C4.57839 22.6578 5.22182 22.3583 5.93602 22.3583M8.5053 24.7998C8.5053 26.1484 7.39918 27.2417 6.03471 27.2417M3.44509 12.8725C3.96213 12.3554 4.65602 12.1214 5.33678 12.1693C5.91158 12.2097 6.47702 12.4511 6.91872 12.8928M7.00903 16.436C6.05543 17.3896 4.50023 17.3805 3.53541 16.4157M6.28252 5.49671C6.12041 5.65882 5.85602 5.65727 5.692 5.49325C5.52798 5.32923 5.52644 5.06485 5.68855 4.90274C5.85066 4.74062 6.11504 4.74217 6.27906 4.90619C6.44308 5.07021 6.44463 5.33459 6.28252 5.49671ZM6.28252 5.49671L14.2701 10.8M5.64705 14.6543C5.64705 14.8836 5.45901 15.0695 5.22705 15.0695C4.99509 15.0695 4.80705 14.8836 4.80705 14.6543C4.80705 14.4251 4.99509 14.2392 5.22705 14.2392C5.45901 14.2392 5.64705 14.4251 5.64705 14.6543ZM5.64705 14.6543L12.9855 14.6543M6.28245 24.5032C6.44456 24.6653 6.44302 24.9297 6.279 25.0937C6.11498 25.2577 5.85059 25.2593 5.68848 25.0971C5.52637 24.935 5.52791 24.6706 5.69193 24.5066C5.85595 24.3426 6.12034 24.3411 6.28245 24.5032ZM6.28245 24.5032L14.2701 19.2M12.9855 14.6543L12.9855 14.7726L12.9855 15C12.9855 19.2526 16.4329 22.7 20.6855 22.7V22.7C24.9381 22.7 28.3855 19.2526 28.3855 15V15V15C28.3855 10.7474 24.9381 7.29998 20.6855 7.29998L20.3399 7.29998C16.2782 7.29998 12.9855 10.5926 12.9855 14.6543V14.6543ZM1.67014 5.2C1.67014 2.8804 3.55055 0.999999 5.87014 0.999999M2.23018 17.5797C0.589974 15.9395 0.589974 13.2802 2.23018 11.64M5.87014 29C3.55054 29 1.67014 27.1196 1.67014 24.8" stroke="black" stroke-width="1.5"/>
</svg>
