<svg width="30" height="24" viewBox="0 0 30 24" fill="none" xmlns="http://www.w3.org/2000/svg">
<path d="M26 4H28C28.5523 4 29 4.44771 29 5V22C29 22.5523 28.5523 23 28 23H15.5185M26 4V2.32637C26 1.6618 25.3637 1.18211 24.7248 1.36498L15.5185 4M26 4V19.2461C26 19.6924 25.7042 20.0846 25.2752 20.2075L15.5185 23M15.5185 4H2C1.44771 4 1 4.44771 1 5V22C1 22.5523 1.44772 23 2 23H6.5M15.5185 4V23M15.5185 23H10.5M6.5 23V16.4577C6.5 15.5533 6.0255 14.7153 5.25 14.25V14.25C4.4745 13.7847 4 12.9466 4 12.0423V9.58276C4 8.98477 4.48477 8.5 5.08276 8.5V8.5C5.61206 8.5 6.06378 8.88266 6.15079 9.40476L6.35689 10.6413C6.44875 11.1925 6.74941 11.687 7.1964 12.0223V12.0223C7.9689 12.6017 9.03109 12.6017 9.8036 12.0223V12.0223C10.2506 11.6871 10.5513 11.1925 10.6431 10.6413L10.8492 9.40476C10.9362 8.88266 11.3879 8.5 11.9172 8.5V8.5C12.5152 8.5 13 8.98477 13 9.58277V12.0423C13 12.9466 12.5255 13.7847 11.75 14.25V14.25C10.9745 14.7153 10.5 15.5534 10.5 16.4577V23M6.5 23H10.5M24 4.99999L17.5 6.99999M24 8.99999L17.5 11M24 13L17.5 15M24 17L17.5 19M3.5 21V19M3.5 17V16M8.5 7V7C8.22386 7 8 7.22386 8 7.5V7.5M8.5 7V7C8.77614 7 9 7.22386 9 7.5V7.5M8.5 7V6M9 7.5V7.5C9 7.77614 8.77614 8 8.5 8V8M9 7.5H10M8.5 8V8C8.22386 8 8 7.77614 8 7.5V7.5M8.5 8V9M8 7.5L7 7.49999" stroke="black" stroke-width="1.5" stroke-linecap="round"/>
</svg>
