<svg width="21" height="30" viewBox="0 0 21 30" fill="none" xmlns="http://www.w3.org/2000/svg">
<path d="M10.5491 1V8.63636M10.5491 8.63636H13.1437C13.4357 8.63636 13.713 8.76393 13.903 8.98557L19.472 15.4828C19.6274 15.664 19.7128 15.8948 19.7128 16.1336V17.8182C19.7128 18.3705 19.2651 18.8182 18.7128 18.8182H14.6219M10.5491 8.63636H7.95453C7.6626 8.63636 7.38525 8.76393 7.19527 8.98557L1.62624 15.4828C1.47089 15.664 1.3855 15.8948 1.3855 16.1336V17.8182C1.3855 18.3705 1.83321 18.8182 2.3855 18.8182H6.47641M6.47641 18.8182V18.8182C6.47641 21.0675 8.29983 22.8909 10.5491 22.8909V22.8909C12.7984 22.8909 14.6219 21.0675 14.6219 18.8182V18.8182M6.47641 18.8182H14.6219M10.5491 24.9273V29M15.64 21.8727H19.7128M5.45823 21.8727H1.3855M13.6037 23.9091L16.6582 26.9636M7.49459 23.9091L4.44004 26.9636" stroke="black" stroke-width="1.5" stroke-linecap="round"/>
</svg>
