<svg width="31" height="19" viewBox="0 0 31 19" fill="none" xmlns="http://www.w3.org/2000/svg">
<path d="M12.9539 6.6H15.9013M12.9539 8.7L15.9013 10.1M12.9539 4.5L15.9013 3.1M10.4855 12.2H2.3855C1.83321 12.2 1.3855 11.7523 1.3855 11.2V2C1.3855 1.44772 1.83321 1 2.3855 1H18.5855C19.1378 1 19.5855 1.44771 19.5855 2V11.2C19.5855 11.7523 19.1378 12.2 18.5855 12.2H10.4855ZM10.4855 12.2V15M10.4855 15H16.9855C17.2616 15 17.4855 15.2239 17.4855 15.5V17.3C17.4855 17.5761 17.2616 17.8 16.9855 17.8H3.9855C3.70936 17.8 3.4855 17.5761 3.4855 17.3V15.5C3.4855 15.2239 3.70936 15 3.9855 15H10.4855ZM8.77789 5.04482L10.728 3.80972C10.7347 3.80551 10.7434 3.81029 10.7434 3.81817V9.38183C10.7434 9.38971 10.7347 9.39449 10.728 9.39028L8.77789 8.15518C8.61784 8.05382 8.43229 8 8.24284 8H4.9855C4.93027 8 4.8855 7.95523 4.8855 7.9V5.3C4.8855 5.24477 4.93027 5.2 4.9855 5.2H8.24284C8.43229 5.2 8.61784 5.14618 8.77789 5.04482ZM25.8855 13.6V13.6C26.6587 13.6 27.2855 12.9732 27.2855 12.2V12.2C27.2855 11.4268 26.6587 10.8 25.8855 10.8V10.8C25.1123 10.8 24.4855 11.4268 24.4855 12.2V12.2C24.4855 12.9732 25.1123 13.6 25.8855 13.6ZM25.8855 6.6V6.6C26.6587 6.6 27.2855 5.9732 27.2855 5.2V5.2C27.2855 4.4268 26.6587 3.8 25.8855 3.8V3.8C25.1123 3.8 24.4855 4.4268 24.4855 5.2V5.2C24.4855 5.9732 25.1123 6.6 25.8855 6.6ZM22.8855 16.4H28.8855C29.1616 16.4 29.3855 16.1761 29.3855 15.9V1.5C29.3855 1.22386 29.1616 1 28.8855 1H22.8855C22.6094 1 22.3855 1.22386 22.3855 1.5V15.9C22.3855 16.1761 22.6094 16.4 22.8855 16.4Z" stroke="black" stroke-width="1.5" stroke-linecap="round"/>
</svg>
