<svg width="25" height="30" viewBox="0 0 25 30" fill="none" xmlns="http://www.w3.org/2000/svg">
<path d="M16.2914 12.5294V12.5294C17.227 12.5294 17.9855 13.2879 17.9855 14.2235V15.6118C17.9855 18.5941 15.5678 21.0118 12.5855 21.0118V21.0118C9.60316 21.0118 7.1855 18.5941 7.1855 15.6118V14.0358C7.1855 13.2039 7.85994 12.5294 8.6919 12.5294V12.5294M16.2914 12.5294V11.2941C16.2914 9.24742 14.6322 7.58824 12.5855 7.58824V7.58824V7.58824C10.4351 7.58824 8.6919 9.33146 8.6919 11.4818V12.5294M16.2914 12.5294H8.6919M12.5855 17.7176V15.8235M12.5855 15V15.8235M12.5855 15.8235H13.4855M12.5855 15.8235H11.6855M13.1513 28.6117L14.822 27.4651C18.0593 25.2435 20.571 22.1181 22.0441 18.4787L22.3244 17.7862C23.2894 15.4021 23.7855 12.8543 23.7855 10.2823V6.59299C23.7855 6.19681 23.5516 5.83799 23.1891 5.67808L13.3928 1.35615C12.8785 1.12927 12.2925 1.12927 11.7782 1.35615L1.98186 5.67808C1.61939 5.83799 1.3855 6.19681 1.3855 6.59299V10.2823C1.3855 12.8543 1.88158 15.4021 2.84656 17.7862L3.12688 18.4787C4.59999 22.1181 7.11172 25.2435 10.349 27.4651L12.0197 28.6117C12.3606 28.8457 12.8104 28.8457 13.1513 28.6117Z" stroke="black" stroke-width="1.5" stroke-linecap="round"/>
</svg>
