<svg width="30" height="30" viewBox="0 0 30 30" fill="none" xmlns="http://www.w3.org/2000/svg">
<path d="M24.3333 15V18.5M24.3333 15V11.5M24.3333 15H29M24.3333 8V11.5M24.3333 8V4.5M24.3333 8H29M24.3333 22V18.5M24.3333 22V11.5M24.3333 22V26.2M24.3333 22H29M24.3333 18.5V11.5M24.3333 18.5H29M24.3333 11.5H29M24.3333 4.5V2C24.3333 1.44772 23.8856 1 23.3333 1H6.66667C6.11438 1 5.66667 1.44772 5.66667 2V4.5M24.3333 4.5V26.2M24.3333 4.5H28.9C28.9552 4.5 29 4.45523 29 4.4V1M24.3333 26.2V28C24.3333 28.5523 23.8856 29 23.3333 29H6.66667C6.11438 29 5.66667 28.5523 5.66667 28V25.5M24.3333 26.2H28.9C28.9552 26.2 29 26.2448 29 26.3V29M5.66667 15H1M5.66667 15V18.5M5.66667 15V11.5M5.66667 22H1M5.66667 22V25.5M5.66667 22V18.5M5.66667 25.5H1.1C1.04477 25.5 1 25.5448 1 25.6V29M5.66667 18.5H1M5.66667 8H1M5.66667 8V4.5M5.66667 8V11.5M5.66667 4.5H1.1C1.04477 4.5 1 4.45523 1 4.4V1M5.66667 11.5H1M8 13.6H22M8.7 16.4H11.5M14.3 16.4H20.6M17 26.9H13C12.9448 26.9 12.9 26.8552 12.9 26.8V23.5C12.9 23.4448 12.9448 23.4 13 23.4H17C17.0552 23.4 17.1 23.4448 17.1 23.5V26.8C17.1 26.8552 17.0552 26.9 17 26.9ZM8.8 23.4H10C10.0552 23.4 10.1 23.4448 10.1 23.5V26.8C10.1 26.8552 10.0552 26.9 10 26.9H8.8C8.74477 26.9 8.7 26.8552 8.7 26.8V23.5C8.7 23.4448 8.74477 23.4 8.8 23.4ZM21.2 26.9H20C19.9448 26.9 19.9 26.8552 19.9 26.8V23.5C19.9 23.4448 19.9448 23.4 20 23.4H21.2C21.2552 23.4 21.3 23.4448 21.3 23.5V26.8C21.3 26.8552 21.2552 26.9 21.2 26.9ZM9.5 9.4H13.5C13.5552 9.4 13.6 9.35523 13.6 9.3V5.3C13.6 5.24477 13.5552 5.2 13.5 5.2H9.5C9.44477 5.2 9.4 5.24477 9.4 5.3V9.3C9.4 9.35523 9.44477 9.4 9.5 9.4Z" stroke="black" stroke-width="1.5" stroke-linecap="round"/>
</svg>
