<svg width="30" height="30" viewBox="0 0 30 30" fill="none" xmlns="http://www.w3.org/2000/svg">
<path d="M1 7V24C1 24.5523 1.44772 25 2 25H3M1 7H18M1 7L6.70711 1.29289C6.89464 1.10536 7.149 1 7.41421 1H17C17.5523 1 18 1.44772 18 2V7M24 13V8C24 7.44772 23.5523 7 23 7H18M24 13H28C28.5523 13 29 13.4477 29 14V18C29 18.5523 28.5523 19 28 19H24M24 13V19M24 19V24C24 24.5523 23.5523 25 23 25H22M22 25L24 29M22 25L20 29M22 25H3M21 22H15M1 29L3 25M3 25L5 29M20 12V12C20.5523 12 21 11.5523 21 11V11C21 10.4477 20.5523 10 20 10V10C19.4477 10 19 10.4477 19 11V11C19 11.5523 19.4477 12 20 12ZM15.9735 16.9119L9.41036 19.8653C8.74862 20.1631 8 19.6791 8 18.9534V13.0466C8 12.3209 8.74862 11.8369 9.41037 12.1347L15.9735 15.0881C16.7597 15.4419 16.7597 16.5581 15.9735 16.9119Z" stroke="black" stroke-width="1.5" stroke-linecap="round"/>
</svg>
