<svg width="42" height="42" viewBox="0 0 42 42" fill="none" xmlns="http://www.w3.org/2000/svg">
<path d="M21 1H33.5C34.0523 1 34.5 1.44772 34.5 2V14M21 1H8.5C7.94772 1 7.5 1.44772 7.5 2V14M21 1V14M14 14V28M14 14H7.5M14 14H21M28 14V28M28 14H34.5M28 14H21M28 28H21M28 28H34.5M14 28H21M14 28H7.5M34.5 14H40C40.5523 14 41 14.4477 41 15V27C41 27.5523 40.5523 28 40 28H34.5M7.5 14H2C1.44772 14 1 14.4477 1 15V27C1 27.5523 1.44772 28 2 28H7.5M21 28V41M21 41H33.5C34.0523 41 34.5 40.5523 34.5 40V28M21 41H8.5C7.94772 41 7.5 40.5523 7.5 40V28" stroke="#D0264F" stroke-width="2"/>
</svg>
