<svg width="29" height="42" viewBox="0 0 29 42" fill="none" xmlns="http://www.w3.org/2000/svg">
<path d="M4.87541 21.6581V24.5093C4.87541 24.5645 4.83064 24.6093 4.77541 24.6093H1.4855C1.43027 24.6093 1.3855 24.5645 1.3855 24.5093V14.3802C1.3855 14.325 1.43027 14.2802 1.4855 14.2802H4.77541C4.83064 14.2802 4.87541 14.325 4.87541 14.3802L4.87541 17.3742M4.87541 21.6581L4.87541 17.3742M4.87541 21.6581L10.089 19.8567C10.103 19.8518 10.1158 19.8439 10.1264 19.8335L15.7814 14.2802M4.87541 17.3742L8.34431 16.0494C8.35815 16.0441 8.37064 16.0358 8.38088 16.0251L11.4626 12.8046M11.4626 12.8046L15.7814 14.2802M11.4626 12.8046L3.75746 10.172C3.24031 9.99534 2.96079 9.4362 3.1298 8.91648L4.26468 5.42674M15.7814 14.2802L23.4585 16.9032C23.9866 17.0837 24.5602 16.7969 24.7328 16.2662L25.1387 15.018M26.5783 10.5913L26.9934 9.31488C27.1624 8.79517 26.8829 8.23603 26.3657 8.05933L6.66468 1.32814C6.13658 1.14771 5.56298 1.43445 5.39039 1.96517L4.26468 5.42674M26.5783 10.5913L25.1387 15.018M26.5783 10.5913L28.932 11.4493C29.185 11.5415 29.3195 11.8176 29.2362 12.0737L28.1061 15.5489C28.0185 15.818 27.7253 15.9609 27.4593 15.864L25.1387 15.018M26.5783 10.5913L16.413 11.3098C16.2351 11.3224 16.0571 11.2872 15.8974 11.2078L4.26468 5.42674M16.8791 8.009V8.009C16.8791 7.80526 16.7139 7.6401 16.5102 7.6401V7.6401C16.3064 7.6401 16.1413 7.80526 16.1413 8.009V8.009C16.1413 8.21273 16.3064 8.37789 16.5102 8.37789V8.37789C16.7139 8.37789 16.8791 8.21273 16.8791 8.009Z" stroke="#FFFFFF" stroke-width="1.5"/>
</svg>
