<svg width="52" height="38" viewBox="0 0 52 38" fill="none" xmlns="http://www.w3.org/2000/svg">
<path d="M1 17.0816V11.1837C1 10.6314 1.44771 10.1837 2 10.1837H7.63265M7.63265 10.1837V2C7.63265 1.44771 8.08037 1 8.63265 1H38.7551M7.63265 10.1837H10.6939M10.6939 10.1837H16.3265C16.8788 10.1837 17.3265 10.6314 17.3265 11.1837V23.9592M10.6939 10.1837V5.06122C10.6939 4.50894 11.1416 4.06122 11.6939 4.06122H41.3265C41.8788 4.06122 42.3265 4.50894 42.3265 5.06122V15.3061C42.3265 15.8584 41.8788 16.3061 41.3265 16.3061H40.2653C39.713 16.3061 39.2653 16.7538 39.2653 17.3061V23.9592M42.3265 1H44.3878C44.94 1 45.3878 1.44772 45.3878 2V15.3061C45.3878 15.8584 45.8355 16.3061 46.3878 16.3061H50C50.5523 16.3061 51 16.7538 51 17.3061V31M42.8367 19.3673H47.4286M39.2653 27.0204H30.5918M39.2653 27.0204V23.9592M39.2653 27.0204V31M17.3265 27.0204H22.4286M17.3265 27.0204V23.9592M17.3265 27.0204V31.102M22.4286 27.0204V31.102M22.4286 27.0204H30.5918M22.4286 31.102H19.8776M22.4286 31.102H30.5918M30.5918 31.102V27.0204M30.5918 31.102H32.6327M39.2653 23.9592H17.3265M19.8776 19.8776H33.1429M19.8776 16.3061H33.1429M1 21.1633V31.102M1 31.102V35.7143C1 36.2666 1.44772 36.7143 2 36.7143H16.3265C16.8788 36.7143 17.3265 36.2666 17.3265 35.7143V31.102M1 31.102H17.3265M8 34H10M39.2653 31V34.6939C39.2653 35.2462 39.713 35.6939 40.2653 35.6939H50C50.5523 35.6939 51 35.2462 51 34.6939V31M39.2653 31H51M44 33.5H46M24.449 13.2449H28.5714C29.1237 13.2449 29.5714 12.7972 29.5714 12.2449V8.12245C29.5714 7.57016 29.1237 7.12245 28.5714 7.12245H24.449C23.8967 7.12245 23.449 7.57016 23.449 8.12245V12.2449C23.449 12.7972 23.8967 13.2449 24.449 13.2449Z" stroke="#D0264F" stroke-width="1.5" stroke-linecap="round"/>
</svg>
