<svg width="25" height="28" viewBox="0 0 25 28" fill="none" xmlns="http://www.w3.org/2000/svg">
<path d="M21.8742 20.9501C21.8742 20.5359 21.5384 20.2001 21.1242 20.2001C20.71 20.2001 20.3742 20.5359 20.3742 20.9501H21.8742ZM6.2537 16.4777C5.83949 16.4777 5.5037 16.8134 5.5037 17.2277C5.5037 17.6419 5.83949 17.9777 6.2537 17.9777V16.4777ZM19 17.9777C19.4142 17.9777 19.75 17.6419 19.75 17.2277C19.75 16.8134 19.4142 16.4777 19 16.4777V17.9777ZM6.2537 19.2001C5.83949 19.2001 5.5037 19.5359 5.5037 19.9501C5.5037 20.3643 5.83949 20.7001 6.2537 20.7001V19.2001ZM12.1523 20.7001C12.5665 20.7001 12.9023 20.3643 12.9023 19.9501C12.9023 19.5359 12.5665 19.2001 12.1523 19.2001V20.7001ZM19 20.7001C19.4142 20.7001 19.75 20.3643 19.75 19.9501C19.75 19.5359 19.4142 19.2001 19 19.2001V20.7001ZM16.6897 19.2001C16.2754 19.2001 15.9397 19.5359 15.9397 19.9501C15.9397 20.3643 16.2754 20.7001 16.6897 20.7001V19.2001ZM5.25 11C5.25 11.4142 5.58579 11.75 6 11.75C6.41421 11.75 6.75 11.4142 6.75 11H5.25ZM10 4.75C10.4142 4.75 10.75 4.41421 10.75 4C10.75 3.58579 10.4142 3.25 10 3.25V4.75ZM10 7.75C10.4142 7.75 10.75 7.41421 10.75 7C10.75 6.58579 10.4142 6.25 10 6.25V7.75ZM10.2646 10.8529C10.1833 11.2591 10.4467 11.6542 10.8529 11.7354C11.2591 11.8167 11.6542 11.5533 11.7354 11.1471L10.2646 10.8529ZM15.2646 11.1471C15.3458 11.5533 15.7409 11.8167 16.1471 11.7354C16.5533 11.6542 16.8167 11.2591 16.7354 10.8529L15.2646 11.1471ZM11.5 8.5L10.8146 8.1954L10.7809 8.27138L10.7646 8.35291L11.5 8.5ZM15.5 8.5L16.2354 8.35291L16.2191 8.27138L16.1854 8.1954L15.5 8.5ZM23.1184 7C23.1184 7.41421 23.4542 7.75 23.8684 7.75C24.2826 7.75 24.6184 7.41421 24.6184 7H23.1184ZM23.25 11C23.25 11.4142 23.5858 11.75 24 11.75C24.4142 11.75 24.75 11.4142 24.75 11H23.25ZM6 13.25C5.58579 13.25 5.25 13.5858 5.25 14C5.25 14.4142 5.58579 14.75 6 14.75V13.25ZM8 14.75C8.41421 14.75 8.75 14.4142 8.75 14C8.75 13.5858 8.41421 13.25 8 13.25V14.75ZM10 13.25C9.58579 13.25 9.25 13.5858 9.25 14C9.25 14.4142 9.58579 14.75 10 14.75V13.25ZM10.5 14.75C10.9142 14.75 11.25 14.4142 11.25 14C11.25 13.5858 10.9142 13.25 10.5 13.25V14.75ZM12.5 13.25C12.0858 13.25 11.75 13.5858 11.75 14C11.75 14.4142 12.0858 14.75 12.5 14.75V13.25ZM14.5 14.75C14.9142 14.75 15.25 14.4142 15.25 14C15.25 13.5858 14.9142 13.25 14.5 13.25V14.75ZM16.5 13.25C16.0858 13.25 15.75 13.5858 15.75 14C15.75 14.4142 16.0858 14.75 16.5 14.75V13.25ZM17 14.75C17.4142 14.75 17.75 14.4142 17.75 14C17.75 13.5858 17.4142 13.25 17 13.25V14.75ZM19 13.25C18.5858 13.25 18.25 13.5858 18.25 14C18.25 14.4142 18.5858 14.75 19 14.75V13.25ZM21 14.75C21.4142 14.75 21.75 14.4142 21.75 14C21.75 13.5858 21.4142 13.25 21 13.25V14.75ZM23 13.25C22.5858 13.25 22.25 13.5858 22.25 14C22.25 14.4142 22.5858 14.75 23 14.75V13.25ZM23.5 14.75C23.9142 14.75 24.25 14.4142 24.25 14C24.25 13.5858 23.9142 13.25 23.5 13.25V14.75ZM13.4086 4.20561L14.094 4.51021L13.4086 4.20561ZM13.5914 4.20561L12.906 4.51021L13.5914 4.20561ZM3.74421 25.6593H2V27.1593H3.74421V25.6593ZM1.75 25.4093V23.5979H0.25V25.4093H1.75ZM2 23.3479H3.74421V21.8479H2V23.3479ZM4.74421 1.75H22.8684V0.25H4.74421V1.75ZM17.516 21.8479H13.7046V23.3479H17.516V21.8479ZM20.1242 25.6593H13.7046V27.1593H20.1242V25.6593ZM13.7046 25.6593H3.74421V27.1593H13.7046V25.6593ZM12.9546 22.5979V26.4093H14.4546V22.5979H12.9546ZM13.7046 21.8479H3.74421V23.3479H13.7046V21.8479ZM2.99421 2V22.5979H4.49421V2H2.99421ZM21.8742 25.4093V20.9501H20.3742V25.4093H21.8742ZM6.2537 17.9777H19V16.4777H6.2537V17.9777ZM6.2537 20.7001H12.1523V19.2001H6.2537V20.7001ZM19 19.2001H16.6897V20.7001H19V19.2001ZM6.1 4.75H10V3.25H6.1V4.75ZM5.25 4.1V7H6.75V4.1H5.25ZM5.25 7V11H6.75V7H5.25ZM6 7.75H10V6.25H6V7.75ZM11.7354 11.1471L12.2354 8.64709L10.7646 8.35291L10.2646 10.8529L11.7354 11.1471ZM12.1854 8.8046L14.094 4.51021L12.7233 3.901L10.8146 8.1954L12.1854 8.8046ZM12.906 4.51021L14.8146 8.8046L16.1854 8.1954L14.2767 3.901L12.906 4.51021ZM14.7646 8.64709L15.2646 11.1471L16.7354 10.8529L16.2354 8.35291L14.7646 8.64709ZM11.5 9.25H15.5V7.75H11.5V9.25ZM18.75 10.9V4.1H17.25V10.9H18.75ZM23.1184 2V7H24.6184V2H23.1184ZM18.1 4.75H21.9V3.25H18.1V4.75ZM21.9 10.25H18.1V11.75H21.9V10.25ZM21.25 4.1V9H22.75V4.1H21.25ZM21.25 9V10.9H22.75V9H21.25ZM22 9.75H23.9V8.25H22V9.75ZM23.25 9.1V11H24.75V9.1H23.25ZM6 14.75H8V13.25H6V14.75ZM10 14.75H10.5V13.25H10V14.75ZM12.5 14.75H14.5V13.25H12.5V14.75ZM16.5 14.75H17V13.25H16.5V14.75ZM19 14.75H21V13.25H19V14.75ZM23 14.75H23.5V13.25H23V14.75ZM23.9 9.75C23.541 9.75 23.25 9.45899 23.25 9.1H24.75C24.75 8.63056 24.3694 8.25 23.9 8.25V9.75ZM21.9 11.75C22.3694 11.75 22.75 11.3694 22.75 10.9H21.25C21.25 10.541 21.541 10.25 21.9 10.25V11.75ZM21.9 4.75C21.541 4.75 21.25 4.45898 21.25 4.1H22.75C22.75 3.63056 22.3694 3.25 21.9 3.25V4.75ZM4.74421 0.25C3.77771 0.25 2.99421 1.0335 2.99421 2H4.49421C4.49421 1.86193 4.60613 1.75 4.74421 1.75V0.25ZM17.25 10.9C17.25 11.3694 17.6306 11.75 18.1 11.75V10.25C18.459 10.25 18.75 10.541 18.75 10.9H17.25ZM18.75 4.1C18.75 4.45899 18.459 4.75 18.1 4.75V3.25C17.6306 3.25 17.25 3.63056 17.25 4.1H18.75ZM22.8684 1.75C23.0064 1.75 23.1184 1.86193 23.1184 2H24.6184C24.6184 1.0335 23.8349 0.25 22.8684 0.25V1.75ZM1.75 23.5979C1.75 23.4598 1.86193 23.3479 2 23.3479V21.8479C1.0335 21.8479 0.25 22.6314 0.25 23.5979H1.75ZM6.1 3.25C5.63056 3.25 5.25 3.63056 5.25 4.1H6.75C6.75 4.45899 6.45899 4.75 6.1 4.75V3.25ZM20.1242 27.1593C21.0907 27.1593 21.8742 26.3758 21.8742 25.4093H20.3742C20.3742 25.5474 20.2622 25.6593 20.1242 25.6593V27.1593ZM14.094 4.51021C13.8652 5.02489 13.1348 5.02489 12.906 4.51021L14.2767 3.901C13.9776 3.22796 13.0224 3.22796 12.7233 3.901L14.094 4.51021ZM2 25.6593C1.86193 25.6593 1.75 25.5474 1.75 25.4093H0.25C0.25 26.3758 1.0335 27.1593 2 27.1593V25.6593Z" fill="black"/>
</svg>
