<svg width="42" height="42" viewBox="0 0 42 42" fill="none" xmlns="http://www.w3.org/2000/svg">
<path d="M39 37H40.5C40.7761 37 41 37.2239 41 37.5V40.5C41 40.7761 40.7761 41 40.5 41H1.5C1.22386 41 1 40.7761 1 40.5V37.5C1 37.2239 1.22386 37 1.5 37H3M39 37H19M39 37V26M39 18H40.5C40.7761 18 41 17.7761 41 17.5V12.5C41 12.2239 40.7761 12 40.5 12H37M39 18H19M39 18V26M3 37V18M3 37H6M3 18H1.5C1.22386 18 1 17.7761 1 17.5V12.5C1 12.2239 1.22386 12 1.5 12H5M3 18H19M37 12L35.5 10.9688M37 12H24M5 12L20.7167 1.19474C20.8874 1.07744 21.1126 1.07744 21.2833 1.19474L32.5 8.90625M5 12H18M19 37V26M19 37H11M35.5 10.9688V4M35.5 10.9688L32.5 8.90625M32.5 4H31.5C31.2239 4 31 3.77614 31 3.5V1.5C31 1.22386 31.2239 1 31.5 1H36.5C36.7761 1 37 1.22386 37 1.5V3.5C37 3.77614 36.7761 4 36.5 4H35.5M32.5 4H35.5M32.5 4V8.90625M19 18V26M19 26H39M11 37V29.5C11 29.2239 10.7761 29 10.5 29H6.5C6.22386 29 6 29.2239 6 29.5V37M11 37H6M18 12V12C18 13.6569 19.3431 15 21 15V15C22.6569 15 24 13.6569 24 12V12M18 12V12C18 10.3431 19.3431 9 21 9V9C22.6569 9 24 10.3431 24 12V12M35.5 22V22C35.5 21.4477 35.0523 21 34.5 21V21C33.9477 21 33.5 21.4477 33.5 22V22C33.5 22.5523 33.9477 23 34.5 23V23C35.0523 23 35.5 22.5523 35.5 22ZM29 23V23C29.5523 23 30 22.5523 30 22V22C30 21.4477 29.5523 21 29 21V21C28.4477 21 28 21.4477 28 22V22C28 22.5523 28.4477 23 29 23ZM31 34H35.5C35.7761 34 36 33.7761 36 33.5V29.5C36 29.2239 35.7761 29 35.5 29H31C30.7239 29 30.5 29.2239 30.5 29.5V33.5C30.5 33.7761 30.7239 34 31 34ZM22.5 34H27C27.2761 34 27.5 33.7761 27.5 33.5V29.5C27.5 29.2239 27.2761 29 27 29H22.5C22.2239 29 22 29.2239 22 29.5V33.5C22 33.7761 22.2239 34 22.5 34ZM6.5 26H15.5C15.7761 26 16 25.7761 16 25.5V21.5C16 21.2239 15.7761 21 15.5 21H6.5C6.22386 21 6 21.2239 6 21.5V25.5C6 25.7761 6.22386 26 6.5 26ZM23.5 23V23C24.0523 23 24.5 22.5523 24.5 22V22C24.5 21.4477 24.0523 21 23.5 21V21C22.9477 21 22.5 21.4477 22.5 22V22C22.5 22.5523 22.9477 23 23.5 23Z" stroke="#D0264F" stroke-width="2"/>
</svg>
