<svg width="25" height="25" viewBox="0 0 25 25" fill="none" xmlns="http://www.w3.org/2000/svg">
<path d="M24.9973 12.5005C24.9973 14.3042 25.0024 16.1079 24.9973 17.9166C24.9872 20.5366 23.768 22.4763 21.5914 23.8467C20.3167 24.6428 18.901 24.9955 17.3995 24.9955C14.1146 24.9955 10.8346 25.0106 7.54963 24.9904C5.26728 24.9753 3.30233 24.1692 1.7455 22.4763C0.783178 21.4284 0.20881 20.194 0.0425458 18.7681C0.00727757 18.4658 0.00223925 18.1686 0.00223925 17.8663C0.00223925 14.2739 -0.00279906 10.6816 0.00223925 7.08931C0.0173542 4.46435 1.23663 2.5246 3.41318 1.15418C4.69795 0.353085 6.11875 0.00544137 7.63025 0.00544137C10.9051 0.00544137 14.1801 -0.00967356 17.455 0.0104797C19.7474 0.0255946 21.7174 0.836763 23.2742 2.53971C24.2264 3.58264 24.7958 4.81703 24.957 6.22776C25.0225 6.78197 24.9923 7.33619 24.9973 7.88536C25.0024 9.42709 24.9973 10.9638 24.9973 12.5005ZM1.87145 12.5005C1.87145 14.3495 1.86642 16.1935 1.87145 18.0426C1.87649 19.3123 2.34002 20.4056 3.20661 21.3125C4.37046 22.5267 5.82149 23.1162 7.48917 23.1263C10.7993 23.1464 14.1045 23.1313 17.4146 23.1313C18.4828 23.1313 19.5005 22.8995 20.4276 22.3655C22.1607 21.3729 23.1382 19.9118 23.1382 17.8663C23.1382 14.2286 23.1382 10.596 23.1382 6.95831C23.1382 5.69874 22.6797 4.61046 21.8181 3.7086C20.6644 2.48933 19.2083 1.88977 17.5456 1.87969C14.2002 1.8545 10.8598 1.86962 7.51436 1.86962C6.47143 1.86962 5.48392 2.11649 4.57703 2.6304C2.84889 3.62799 1.86642 5.0891 1.87145 7.13465C1.87145 8.92326 1.87145 10.7119 1.87145 12.5005Z" fill="white"/>
<path d="M12.5178 17.8411C9.26308 17.8411 6.65323 15.2413 6.65827 11.9966C6.66331 8.83759 9.30843 6.2479 12.538 6.25294C15.7827 6.25294 18.4026 8.85775 18.3975 12.0722C18.3925 15.2564 15.7575 17.8411 12.5178 17.8411ZM12.5178 15.9769C14.7296 15.9769 16.5334 14.2185 16.5334 12.0571C16.5334 9.88556 14.7448 8.11711 12.538 8.11711C10.3262 8.11711 8.52245 9.87548 8.52245 12.0369C8.52245 14.2084 10.311 15.9769 12.5178 15.9769Z" fill="white"/>
<path d="M17.8437 5.77955C17.8437 5.06411 18.3929 4.48975 19.0781 4.48975C19.7633 4.48975 20.3125 5.06915 20.3125 5.77955C20.3125 6.47988 19.7633 7.05425 19.0882 7.05929C18.4029 7.06432 17.8437 6.49499 17.8437 5.77955Z" fill="white"/>
</svg>
