<svg width="29" height="42" viewBox="0 0 29 42" fill="none" xmlns="http://www.w3.org/2000/svg">
<path d="M1.3855 22.1412V22.1412C1.3855 15.2888 6.94045 9.73389 13.7928 9.73389V9.73389C20.6452 9.73389 26.2002 15.2888 26.2002 22.1412V22.1412M18.3422 15.4228L20.6169 16.7163M18.3422 15.4228V21.3968C18.3422 21.4653 18.2866 21.5209 18.2181 21.5209H14.9357M18.3422 15.4228L13.8542 12.8706C13.8161 12.849 13.7695 12.849 13.7315 12.8706L9.24348 15.4228M9.24348 15.4228L6.9688 16.7163M9.24348 15.4228V21.3968C9.24348 21.4653 9.29903 21.5209 9.36755 21.5209H12.661M14.9357 21.5209V18.3187C14.9357 18.2502 14.8801 18.1946 14.8116 18.1946H13.7983H12.7851C12.7165 18.1946 12.661 18.2502 12.661 18.3187V21.5209M14.9357 21.5209H12.661M24.2768 11.9153L25.1862 12.8247C25.2305 12.869 25.2348 12.9394 25.1962 12.9888L24.1577 14.3186C24.1118 14.3773 24.0249 14.3826 23.9722 14.3299L20.6945 11.0522C20.6502 11.0079 20.6459 10.9375 20.6844 10.8881L21.723 9.55837C21.7688 9.49963 21.8558 9.4943 21.9085 9.54701L22.8441 10.4826M24.2768 11.9153L22.8441 10.4826M24.2768 11.9153L25.3001 9.69625C25.308 9.67906 25.3119 9.66029 25.3114 9.64137L25.2265 6.03062M22.8441 10.4826L23.4807 8.96968C23.488 8.95234 23.4913 8.93357 23.4903 8.91479L23.3798 6.89034M23.3798 6.89034L25.2265 6.03062M23.3798 6.89034L22.2355 7.43161C21.6378 7.70983 20.9269 7.47211 20.6169 6.89034L20.1403 5.99617L19.7268 5.22028C19.3922 4.59235 19.6531 3.81221 20.2981 3.51191L25.3114 1.10815C25.8678 0.849124 26.5296 1.07044 26.8183 1.61205M25.2265 6.03062L27.3703 4.97128C27.9094 4.72032 28.1274 4.06837 27.8477 3.54362M26.8183 1.61205L27.8477 3.54362M26.8183 1.61205L28.071 1.10812C28.3681 0.977489 28.7156 1.09786 28.8682 1.38423L29.3124 2.21774C29.4822 2.53634 29.3452 2.93206 29.0147 3.07739L27.8477 3.54362M4.8855 12.8706L2.78542 7.29756M7.6855 12.0018L6.12996 7.81492M9.93647 9.77356L8.55057 5.4497M16.0855 9.73389L14.3157 3.60184M13.2855 9.90184L11.8951 5.96706" stroke="#FFFFFF" stroke-width="1.5"/>
</svg>
