<svg width="30" height="28" viewBox="0 0 30 28" fill="none" xmlns="http://www.w3.org/2000/svg">
<path d="M11.8587 19.615L16.4768 21.924C16.8155 22.0934 17.0295 22.4396 17.0295 22.8184V25.8541C17.0295 26.4064 16.5818 26.8541 16.0295 26.8541H5.10249C4.55021 26.8541 4.10249 26.4064 4.10249 25.8541V21.6833M11.8587 19.615L10.8522 21.628C10.8353 21.6619 10.8006 21.6833 10.7628 21.6833H4.10249M11.8587 19.615V14.7895M4.10249 21.6833L5.63374 19.6416C5.64672 19.6243 5.65374 19.6033 5.65374 19.5816V9.37331C5.65374 9.31809 5.60897 9.27331 5.55374 9.27331H3C1.89543 9.27331 1 8.37788 1 7.27331V3C1 1.89543 1.89543 1 3 1H18.9979C19.0531 1 19.0979 1.04477 19.0979 1.1V3M19.0979 3V4M19.0979 3H21.1662M19.0979 10V11.6904C19.0979 11.7456 19.0531 11.7904 18.9979 11.7904H15M19.0979 10V9.27331M19.0979 10H21.1662M15 11.7904V14.6895C15 14.7447 14.9552 14.7895 14.9 14.7895H11.8587M15 11.7904H11.9587C11.9035 11.7904 11.8587 11.8352 11.8587 11.8904V14.7895M14.2632 4H19.0979M19.0979 4V6.65374M19.0979 6.65374H16.5125M19.0979 6.65374V9.27331M19.0979 9.27331H14.2632M23.2345 3H25.2029C25.2581 3 25.3029 3.04477 25.3029 3.1V6.03666C25.3029 6.09189 25.3476 6.13666 25.4029 6.13666H28.9C28.9552 6.13666 29 6.18143 29 6.23666V7.07082C29 7.12605 28.9552 7.17082 28.9 7.17082H25.4029C25.3476 7.17082 25.3029 7.21559 25.3029 7.27082V9.9C25.3029 9.95523 25.2581 10 25.2029 10H23.2345M23.2345 3V10M23.2345 3H21.1662M23.2345 10H21.1662M21.1662 10V3M6.6879 6.07082V3.68541C6.6879 3.63018 6.64313 3.58541 6.5879 3.58541H4.20249C4.14726 3.58541 4.10249 3.63018 4.10249 3.68541V6.07082C4.10249 6.12605 4.14726 6.17082 4.20249 6.17082H6.5879C6.64313 6.17082 6.6879 6.12605 6.6879 6.07082Z" stroke="black" stroke-width="1.5" stroke-linecap="round"/>
</svg>
