<svg width="42" height="42" viewBox="0 0 42 42" fill="none" xmlns="http://www.w3.org/2000/svg">
<path d="M30.1116 41.7549C30.5286 42.1171 31.1602 42.0727 31.5224 41.6558C31.8846 41.2389 31.8402 40.6073 31.4232 40.2451L30.1116 41.7549ZM10.5417 40.277C10.1424 40.6586 10.128 41.2916 10.5096 41.6909C10.8911 42.0902 11.5241 42.1045 11.9234 41.723L10.5417 40.277ZM41 20C41.5523 20 42 19.5523 42 19C42 18.4477 41.5523 18 41 18V20ZM1 18C0.447715 18 0 18.4477 0 19C0 19.5523 0.447715 20 1 20V18ZM11 16L10.0096 15.8618L11 16ZM29.1756 5.12422L28.191 5.29937L29.1756 5.12422ZM12.4918 5.30902L11.5014 5.17083L12.4918 5.30902ZM27.3278 22.699L26.9861 21.7592L27.3278 22.699ZM28.4723 39.0062L27.8165 39.7612L28.4723 39.0062ZM22 41V36.5556H20V41H22ZM21 37.5556H21.9143V35.5556H21V37.5556ZM27.8165 39.7612L30.1116 41.7549L31.4232 40.2451L29.1281 38.2513L27.8165 39.7612ZM21 35.5556H19.8934V37.5556H21V35.5556ZM12.2939 38.6027L10.5417 40.277L11.9234 41.723L13.6756 40.0486L12.2939 38.6027ZM22 36.5556V31H20V36.5556H22ZM37 29V21H35V29H37ZM38 20H41V18H38V20ZM7.11628 29V21H5.11628V29H7.11628ZM4.11628 18H1V20H4.11628V18ZM21 30H10.3023V32H21V30ZM10.3023 30H8.11628V32H10.3023V30ZM11.3023 31V28H9.30233V31H11.3023ZM21 32H32V30H21V32ZM32 32H34V30H32V32ZM31 28V31H33V28H31ZM12.3023 27H21V25H12.3023V27ZM21 27H30V25H21V27ZM22 26V23H20V26H22ZM21 24H25.6191V22H21V24ZM16.4288 24H21V22H16.4288V24ZM27.6696 23.6388L28.3915 23.3762L27.708 21.4967L26.9861 21.7592L27.6696 23.6388ZM13.6483 23.3589L14.2741 23.5998L14.9923 21.7332L14.3665 21.4924L13.6483 23.3589ZM24.2529 0H20.7674V2H24.2529V0ZM20.7674 0H17.4438V2H20.7674V0ZM11.5895 11.9941L20.7755 12.9941L20.9919 11.0059L11.8059 10.0059L11.5895 11.9941ZM20.9902 12.9943L30.3274 11.9943L30.1144 10.0057L20.7772 11.0057L20.9902 12.9943ZM10.7073 10.8618L10.0096 15.8618L11.9904 16.1382L12.6881 11.1382L10.7073 10.8618ZM10.0096 15.8618L9.86054 16.93L11.8414 17.2064L11.9904 16.1382L10.0096 15.8618ZM19.8838 12.0106L19.9419 17.5106L21.9418 17.4894L21.8837 11.9894L19.8838 12.0106ZM19.9419 17.5106L20.0001 23.0106L21.9999 22.9894L21.9418 17.4894L19.9419 17.5106ZM10.8508 16.9888L20.7927 18.4888L21.091 16.5112L11.1492 15.0112L10.8508 16.9888ZM32.2483 16.6865L32.095 15.8248L30.1259 16.1752L30.2792 17.0369L32.2483 16.6865ZM32.095 15.8248L31.2055 10.8248L29.2364 11.1752L30.1259 16.1752L32.095 15.8248ZM21.0878 18.4893L31.2564 16.9893L30.9645 15.0107L20.7959 16.5107L21.0878 18.4893ZM31.2055 10.8248L30.3159 5.82484L28.3469 6.17516L29.2364 11.1752L31.2055 10.8248ZM30.3159 5.82484L30.1601 4.94906L28.191 5.29937L28.3469 6.17516L30.3159 5.82484ZM19.7675 1.01057L19.8256 6.51057L21.8255 6.48943L21.7674 0.98943L19.7675 1.01057ZM19.8256 6.51057L19.8838 12.0106L21.8837 11.9894L21.8255 6.48943L19.8256 6.51057ZM29.2727 5.00172L20.7669 5.50172L20.8843 7.49828L29.3901 6.99828L29.2727 5.00172ZM11.5014 5.17083L11.4049 5.8618L13.3858 6.1382L13.4822 5.44722L11.5014 5.17083ZM11.4049 5.8618L10.7073 10.8618L12.6881 11.1382L13.3858 6.1382L11.4049 5.8618ZM20.8848 5.50175L12.4546 5.00175L12.3361 6.99825L20.7664 7.49825L20.8848 5.50175ZM14.3665 21.4924C12.6308 20.8245 11.5843 19.0484 11.8414 17.2064L9.86054 16.93C9.47502 19.693 11.0446 22.3571 13.6483 23.3589L14.3665 21.4924ZM28.3915 23.3762C31.1319 22.3797 32.759 19.5574 32.2483 16.6865L30.2792 17.0369C30.6197 18.9507 29.5349 20.8323 27.708 21.4967L28.3915 23.3762ZM16.4288 22C15.9376 22 15.4507 21.9095 14.9923 21.7332L14.2741 23.5998C14.9616 23.8643 15.6921 24 16.4288 24V22ZM24.2529 2C26.1917 2 27.8514 3.39049 28.191 5.29937L30.1601 4.94906C29.6507 2.08573 27.1612 0 24.2529 0V2ZM11.3023 28C11.3023 27.4477 11.75 27 12.3023 27V25C10.6455 25 9.30233 26.3431 9.30233 28H11.3023ZM7.11628 21C7.11628 19.3431 5.77313 18 4.11628 18V20C4.66856 20 5.11628 20.4477 5.11628 21H7.11628ZM17.4438 0C14.4505 0 11.915 2.20622 11.5014 5.17083L13.4822 5.44722C13.7579 3.47081 15.4482 2 17.4438 2V0ZM5.11628 29C5.11628 30.6569 6.45942 32 8.11628 32V30C7.56399 30 7.11628 29.5523 7.11628 29H5.11628ZM25.6191 24C26.3184 24 27.0124 23.8777 27.6696 23.6388L26.9861 21.7592C26.548 21.9185 26.0853 22 25.6191 22V24ZM37 21C37 20.4477 37.4477 20 38 20V18C36.3431 18 35 19.3431 35 21H37ZM33 28C33 26.3431 31.6569 25 30 25V27C30.5523 27 31 27.4477 31 28H33ZM19.8934 35.5556C17.0625 35.5556 14.3406 36.6469 12.2939 38.6027L13.6756 40.0486C15.3502 38.4485 17.5772 37.5556 19.8934 37.5556V35.5556ZM35 29C35 29.5523 34.5523 30 34 30V32C35.6569 32 37 30.6569 37 29H35ZM21.9143 37.5556C24.0832 37.5556 26.1791 38.3388 27.8165 39.7612L29.1281 38.2513C27.1268 36.5128 24.5651 35.5556 21.9143 35.5556V37.5556Z" fill="#D0264F"/>
</svg>
