<svg width="18" height="18" viewBox="0 0 18 18" fill="none" xmlns="http://www.w3.org/2000/svg">
<path d="M0 0.818182C0 0.366312 0.366312 0 0.818182 0H4.09091H7.36364H10.6364H13.9091H17.1818C17.6337 0 18 0.366312 18 0.818182V4.90909C18 5.36096 17.6337 5.72727 17.1818 5.72727V15.5455C17.1818 16.9011 16.0829 18 14.7273 18H11.4545H6.54545H3.27273C1.91712 18 0.818182 16.9011 0.818182 15.5455V5.72727C0.366312 5.72727 0 5.36096 0 4.90909V0.818182ZM7.36364 16.3636H10.6364V10.6364H7.36364V16.3636ZM12.2727 16.3636H14.7273C15.1791 16.3636 15.5455 15.9973 15.5455 15.5455V5.72727H13.9091H10.6364H7.36364H4.09091H2.45455V15.5455C2.45455 15.9973 2.82086 16.3636 3.27273 16.3636H5.72727V9.81818C5.72727 9.36631 6.09359 9 6.54545 9H11.4545C11.9064 9 12.2727 9.36631 12.2727 9.81818V16.3636ZM3.27273 4.09091V1.63636H1.63636V4.09091H3.27273ZM6.54545 4.09091V1.63636H4.90909V4.09091H6.54545ZM9.81818 4.09091V1.63636H8.18182V4.09091H9.81818ZM13.0909 4.09091V1.63636H11.4545V4.09091H13.0909ZM16.3636 4.09091V1.63636H14.7273V4.09091H16.3636Z" fill="#191919"/>
</svg>
