<svg width="25" height="23" viewBox="0 0 25 23" fill="none" xmlns="http://www.w3.org/2000/svg">
<path d="M24.3576 0.448016C24.1031 0.228278 23.7934 0.0823503 23.4619 0.0260345C23.1304 -0.0302813 22.7899 0.0051611 22.4771 0.128524L1.17167 8.49855C0.800309 8.64444 0.486174 8.90666 0.276269 9.24597C0.0663638 9.58528 -0.0280256 9.98344 0.0072245 10.3809C0.0424746 10.7783 0.205469 11.1536 0.471818 11.4507C0.738167 11.7478 1.09355 11.9506 1.48479 12.0288L6.89653 13.1112V19.8707C6.89622 20.2362 7.00436 20.5935 7.20726 20.8974C7.41017 21.2014 7.6987 21.4383 8.03634 21.5781C8.37397 21.718 8.74551 21.7545 9.1039 21.683C9.4623 21.6116 9.79143 21.4354 10.0496 21.1767L13.0445 18.1819L17.5901 22.182C17.9248 22.4792 18.3567 22.6436 18.8042 22.6441C18.9988 22.6439 19.1921 22.6132 19.3772 22.5532C19.6825 22.4564 19.957 22.2812 20.1735 22.0452C20.3899 21.8092 20.5406 21.5205 20.6107 21.208L24.9528 2.26035C25.0284 1.93271 25.0129 1.59063 24.908 1.27116C24.8031 0.951699 24.6128 0.667037 24.3576 0.448016ZM7.60603 11.3695L1.84723 10.2177L17.9722 3.88286L7.60603 11.3695ZM8.74358 19.8698V14.397L11.655 16.9591L8.74358 19.8698ZM18.8103 20.7954L9.29886 12.4252L22.9953 2.53345L18.8103 20.7954Z" fill="white"/>
</svg>
