<svg width="52" height="52" viewBox="0 0 52 52" fill="none" xmlns="http://www.w3.org/2000/svg">
<path d="M10.996 13.2842C11.3311 12.8933 11.6837 12.5122 12.0539 12.142C12.424 11.7719 12.8051 11.4193 13.196 11.0842M16.196 8.95794C23.8446 4.53704 33.7945 5.59841 40.3381 12.142C48.1486 19.9525 48.1486 32.6158 40.3381 40.4263C32.5277 48.2368 19.8644 48.2368 12.0539 40.4263C5.74309 34.1155 4.83478 24.3332 8.74366 16.7842M35.9117 17L37.2852 15.4524M26.2899 13V10.9987M16.9117 17L15.3214 15.6685M12.9117 26.6691H10.9107M16.9117 36L15.4499 37.4603M26.4117 39V41.4289M35.9117 36L37.4147 37.4169M39.9117 26.4426H41.9118M26.4268 23.4276C28.0837 23.4276 29.4117 24.7858 29.4117 26.4426C29.4118 28.0995 28.0686 29.4426 26.4118 29.4426C24.755 29.4426 23.4269 28.0843 23.4269 26.4275C23.4269 24.7707 24.77 23.4276 26.4268 23.4276ZM26.4268 23.4276V17M8.2341 43.6777C17.9972 53.4408 33.8263 53.4408 43.5894 43.6777C53.3525 33.9146 53.5302 18.0854 43.7671 8.32233C34.004 -1.44078 18.1749 -1.44078 8.41177 8.32233C-1.35134 18.0854 -1.529 33.9146 8.2341 43.6777Z" stroke="#D0264F" stroke-width="1.5" stroke-linecap="round"/>
</svg>
