<svg width="32" height="52" viewBox="0 0 32 52" fill="none" xmlns="http://www.w3.org/2000/svg">
<path d="M15.1176 46.848C15.5177 47.284 16.1663 47.284 16.5663 46.848C16.9664 46.4121 16.9664 45.7053 16.5663 45.2693C16.1663 44.8334 15.5177 44.8334 15.1176 45.2693C14.7176 45.7053 14.7176 46.4121 15.1176 46.848Z" fill="white"/>
<path d="M15.975 24.025C15.7127 24.025 15.5 24.2377 15.5 24.5C15.5 24.7623 15.7127 24.975 15.975 24.975C16.2373 24.975 16.45 24.7623 16.45 24.5C16.45 24.2377 16.2373 24.025 15.975 24.025Z" fill="white"/>
<path d="M11.5882 4.01929C11.174 4.01929 10.8382 4.35507 10.8382 4.76929C10.8382 5.1835 11.174 5.51929 11.5882 5.51929V4.01929ZM20.4118 5.51929C20.826 5.51929 21.1618 5.1835 21.1618 4.76929C21.1618 4.35507 20.826 4.01929 20.4118 4.01929V5.51929ZM3 1.75005H29V0.250053H3V1.75005ZM29 50.2501H3V51.7501H29V50.2501ZM1.75 49.0001V40.4616H0.25V49.0001H1.75ZM30.25 40.4616V49.0001H31.75V40.4616H30.25ZM1 41.2116H31V39.7116H1V41.2116ZM16.0137 46.341C15.9543 46.4057 15.8919 46.425 15.842 46.425C15.792 46.425 15.7296 46.4057 15.6702 46.341L14.565 47.3551C15.2623 48.115 16.4216 48.115 17.1189 47.3551L16.0137 46.341ZM16.0137 45.7764C16.1506 45.9256 16.1506 46.1918 16.0137 46.341L17.1189 47.3551C17.7822 46.6324 17.7822 45.485 17.1189 44.7623L16.0137 45.7764ZM15.6702 45.7764C15.7296 45.7117 15.792 45.6924 15.842 45.6924C15.8919 45.6924 15.9543 45.7117 16.0137 45.7764L17.1189 44.7623C16.4216 44.0024 15.2623 44.0024 14.565 44.7623L15.6702 45.7764ZM14.565 44.7623C13.9017 45.485 13.9018 46.6324 14.565 47.3551L15.6702 46.341C15.5334 46.1918 15.5334 45.9255 15.6702 45.7764L14.565 44.7623ZM30.25 3.00005V8.53852H31.75V3.00005H30.25ZM30.25 8.53852V40.4616H31.75V8.53852H30.25ZM1.75 40.4616V8.53852H0.25V40.4616H1.75ZM1.75 8.53852V3.00005H0.25V8.53852H1.75ZM31 7.78852H1V9.28852H31V7.78852ZM11.5882 5.51929H20.4118V4.01929H11.5882V5.51929ZM12.8382 23.3824C12.8382 22.2534 13.7534 21.3383 14.8824 21.3383V19.8383C12.925 19.8383 11.3382 21.425 11.3382 23.3824H12.8382ZM7.25 23.3824C7.25 19.1671 10.6671 15.75 14.8824 15.75V14.25C9.8387 14.25 5.75 18.3387 5.75 23.3824H7.25ZM10.0441 23.3824C10.0441 20.7103 12.2103 18.5441 14.8824 18.5441V17.0441C11.3818 17.0441 8.54412 19.8819 8.54412 23.3824H10.0441ZM14.8824 27.6618C13.7534 27.6618 12.8382 26.7466 12.8382 25.6177H11.3382C11.3382 27.575 12.925 29.1618 14.8824 29.1618V27.6618ZM14.8824 33.25C10.6671 33.25 7.25 29.8329 7.25 25.6177H5.75C5.75 30.6613 9.8387 34.75 14.8824 34.75V33.25ZM14.8824 30.4559C12.2103 30.4559 10.0441 28.2897 10.0441 25.6177H8.54412C8.54412 29.1182 11.3818 31.9559 14.8824 31.9559V30.4559ZM19.1618 25.6177C19.1618 26.7466 18.2466 27.6618 17.1176 27.6618V29.1618C19.075 29.1618 20.6618 27.575 20.6618 25.6177H19.1618ZM24.75 25.6177C24.75 29.8329 21.3329 33.25 17.1176 33.25V34.75C22.1613 34.75 26.25 30.6613 26.25 25.6177H24.75ZM21.9559 25.6177C21.9559 28.2897 19.7897 30.4559 17.1176 30.4559V31.9559C20.6181 31.9559 23.4559 29.1182 23.4559 25.6177H21.9559ZM17.1176 21.3382C18.2466 21.3382 19.1618 22.2534 19.1618 23.3823H20.6618C20.6618 21.425 19.075 19.8382 17.1176 19.8382V21.3382ZM17.1176 15.75C21.3329 15.75 24.75 19.1671 24.75 23.3823H26.25C26.25 18.3387 22.1613 14.25 17.1176 14.25V15.75ZM17.1176 18.5441C19.7897 18.5441 21.9559 20.7103 21.9559 23.3823H23.4559C23.4559 19.8818 20.6182 17.0441 17.1176 17.0441V18.5441ZM16.25 24.5C16.25 24.6519 16.1269 24.775 15.975 24.775V23.275C15.2985 23.275 14.75 23.8234 14.75 24.5H16.25ZM15.975 24.225C16.1269 24.225 16.25 24.3481 16.25 24.5H14.75C14.75 25.1766 15.2985 25.725 15.975 25.725V24.225ZM15.7 24.5C15.7 24.3481 15.8231 24.225 15.975 24.225V25.725C16.6515 25.725 17.2 25.1766 17.2 24.5H15.7ZM17.2 24.5C17.2 23.8234 16.6515 23.275 15.975 23.275V24.775C15.8231 24.775 15.7 24.6519 15.7 24.5H17.2ZM29 51.7501C30.5188 51.7501 31.75 50.5188 31.75 49.0001H30.25C30.25 49.6904 29.6904 50.2501 29 50.2501V51.7501ZM29 1.75005C29.6904 1.75005 30.25 2.3097 30.25 3.00005H31.75C31.75 1.48127 30.5188 0.250053 29 0.250053V1.75005ZM3 0.250053C1.48122 0.250053 0.25 1.48127 0.25 3.00005H1.75C1.75 2.3097 2.30964 1.75005 3 1.75005V0.250053ZM3 50.2501C2.30964 50.2501 1.75 49.6904 1.75 49.0001H0.25C0.25 50.5188 1.48122 51.7501 3 51.7501V50.2501Z" fill="#D0264F"/>
</svg>
