<svg width="25" height="18" viewBox="0 0 25 18" fill="none" xmlns="http://www.w3.org/2000/svg">
<path d="M12.4661 0.00753063C13.5946 0.00753063 14.7182 -0.0123552 15.8467 0.0125025C17.2785 0.0423316 18.7103 0.0970184 20.1372 0.161648C20.7288 0.191477 21.3303 0.206392 21.917 0.320737C23.314 0.589199 24.1442 1.44927 24.527 2.8065C24.7309 3.52737 24.8054 4.26813 24.8701 5.00889C25.0441 7.00247 25.0093 8.99605 24.9595 10.9896C24.9297 12.1679 24.88 13.3561 24.5817 14.5095C24.4574 14.9818 24.3132 15.4541 24.0398 15.8667C23.5427 16.6174 22.8268 17.045 21.9518 17.204C21.2011 17.3432 20.4404 17.3582 19.6798 17.393C18.2728 17.4576 16.8659 17.4874 15.459 17.5222C13.7935 17.567 12.128 17.557 10.4675 17.5421C9.12027 17.5272 7.76801 17.4974 6.42073 17.4427C5.28225 17.3979 4.1388 17.378 3.01523 17.1593C2.39379 17.04 1.84195 16.7815 1.36468 16.3539C0.917247 15.9462 0.688556 15.4193 0.519524 14.8625C0.156603 13.6693 0.131745 12.4363 0.0571726 11.2034C-0.0273434 9.76166 -0.00248576 8.31992 0.0323149 6.88315C0.0621441 5.6701 0.116831 4.45208 0.370379 3.25891C0.519525 2.55295 0.723357 1.85197 1.23542 1.31007C1.86681 0.643886 2.6722 0.325709 3.58198 0.261079C4.67075 0.186506 5.76448 0.136791 6.85325 0.0920468C8.72254 0.0125024 10.5968 -0.0123555 12.4661 0.00753063ZM16.5974 8.51878C16.5776 8.45912 16.5229 8.44918 16.4831 8.4293C15.3148 7.81283 14.1415 7.19636 12.9682 6.57989C12.0386 6.09268 11.1089 5.6005 10.1792 5.10832C9.92068 4.97409 9.91571 4.97906 9.91571 5.27735C9.91571 7.42008 9.91571 9.5628 9.91571 11.7105C9.91571 11.7503 9.91571 11.795 9.91571 11.8348C9.91074 11.9641 9.96045 12.0038 10.0798 11.9392C10.2239 11.8596 10.3681 11.7801 10.5173 11.7006C12.476 10.6864 14.4398 9.66721 16.3986 8.65302C16.4682 8.61324 16.5577 8.59833 16.5974 8.51878Z" fill="white"/>
</svg>
