<svg width="42" height="42" viewBox="0 0 42 42" fill="none" xmlns="http://www.w3.org/2000/svg">
<path d="M9 41V16M9 41H1.1C1.04477 41 1 40.9552 1 40.9V30.5M9 41H23M33 41V26M33 41H40.9C40.9552 41 41 40.9552 41 40.9V35.5M33 41H29M33 26V1.1C33 1.04477 32.9552 1 32.9 1H9.1C9.04477 1 9 1.04477 9 1.1V16M33 26L37 28M9 16L5 18M29 41V31.1C29 31.0448 28.9552 31 28.9 31H23.1C23.0448 31 23 31.0448 23 31.1V41M29 41H23M41 35.5V30.0618C41 30.0239 40.9786 29.9893 40.9447 29.9724L37 28M41 35.5H37.1C37.0448 35.5 37 35.4552 37 35.4V28M1 30.5V20.0618C1 20.0239 1.0214 19.9893 1.05528 19.9724L5 18M1 30.5H4.9C4.95523 30.5 5 30.4552 5 30.4V18M13.1 37H18.9C18.9552 37 19 36.9552 19 36.9V25.1C19 25.0448 18.9552 25 18.9 25H13.1C13.0448 25 13 25.0448 13 25.1V36.9C13 36.9552 13.0448 37 13.1 37ZM23.1 27H28.9C28.9552 27 29 26.9552 29 26.9V15.1C29 15.0448 28.9552 15 28.9 15H23.1C23.0448 15 23 15.0448 23 15.1V26.9C23 26.9552 23.0448 27 23.1 27ZM13.1 21H18.9C18.9552 21 19 20.9552 19 20.9V15.1C19 15.0448 18.9552 15 18.9 15H13.1C13.0448 15 13 15.0448 13 15.1V20.9C13 20.9552 13.0448 21 13.1 21ZM23.1 11H28.9C28.9552 11 29 10.9552 29 10.9V5.1C29 5.04477 28.9552 5 28.9 5H23.1C23.0448 5 23 5.04477 23 5.1V10.9C23 10.9552 23.0448 11 23.1 11ZM13.1 11H18.9C18.9552 11 19 10.9552 19 10.9V5.1C19 5.04477 18.9552 5 18.9 5H13.1C13.0448 5 13 5.04477 13 5.1V10.9C13 10.9552 13.0448 11 13.1 11Z" stroke="#D0264F" stroke-width="2"/>
</svg>
