<svg width="42" height="42" viewBox="0 0 42 42" fill="none" xmlns="http://www.w3.org/2000/svg">
<path d="M36.3847 18L36.555 20.213C36.8957 24.6428 35.2837 29.0004 32.1421 32.1421C29.0004 35.2837 24.6428 36.8957 20.213 36.555L17.9999 36.3847M5.5 20.0622L5.90834 17.8805C6.72573 13.5134 9.41061 9.72148 13.2583 7.5C17.1061 5.27852 21.7324 4.84929 25.9231 6.32498L28.0167 7.06218M29.911 10.0715L33.9301 14.12C33.9688 14.159 33.9688 14.2219 33.9301 14.2609L16.391 31.9285C16.3519 31.9679 16.2881 31.9679 16.249 31.9285L8.06994 23.6895C8.03123 23.6505 8.03123 23.5876 8.06994 23.5486L12.089 19.5001C12.1281 19.4607 12.1919 19.4607 12.231 19.5001L16.249 23.5476C16.2881 23.587 16.3519 23.587 16.391 23.5476L29.769 10.0715C29.8081 10.0321 29.8719 10.0321 29.911 10.0715ZM21 41V41C32.0457 41 41 32.0457 41 21V21C41 9.95431 32.0457 1 21 1V1C9.95431 1 1 9.95431 1 21V21C1 32.0457 9.95431 41 21 41Z" stroke="#D0264F" stroke-width="2"/>
</svg>
