<svg width="37" height="41" viewBox="0 0 37 41" fill="none" xmlns="http://www.w3.org/2000/svg">
<path d="M18.5 28H20C20.5523 28 21 28.4477 21 29V39C21 39.5523 20.5523 40 20 40H17C16.4477 40 16 39.5523 16 39V29C16 28.4477 16.4477 28 17 28H18.5ZM18.5 28V23.9972C18.5 23.446 18.946 22.9987 19.4972 22.9972L35.0028 22.9536C35.554 22.9521 36 22.5048 36 21.9536V14C36 13.4477 35.5523 13 35 13H27M27 13V11C27 10.4477 26.5523 10 26 10H2C1.44772 10 1 10.4477 1 11V17C1 17.5523 1.44772 18 2 18H26C26.5523 18 27 17.5523 27 17V13ZM2 7V0M26 7V0M22 7V2M18 7V4M14 7V1M10 7V4M6 7V2" stroke="#D0264F" stroke-width="2"/>
</svg>
